<?xml version="1.0" encoding="UTF-8" standalone="no"?>
<!-- Created with Inkscape (http://www.inkscape.org/) -->

<svg
   xmlns:dc="http://purl.org/dc/elements/1.1/"
   xmlns:cc="http://creativecommons.org/ns#"
   xmlns:rdf="http://www.w3.org/1999/02/22-rdf-syntax-ns#"
   xmlns:svg="http://www.w3.org/2000/svg"
   xmlns="http://www.w3.org/2000/svg"
   xmlns:sodipodi="http://sodipodi.sourceforge.net/DTD/sodipodi-0.dtd"
   xmlns:inkscape="http://www.inkscape.org/namespaces/inkscape"
   width="200"
   height="330.78"
   id="svg2"
   version="1.1"
   inkscape:version="0.48.2 r9819"
   sodipodi:docname="breadam.svg"
   inkscape:export-filename="C:\devel\projects\breadam.com\logo\l12.png"
   inkscape:export-xdpi="300"
   inkscape:export-ydpi="300">
  <title
     id="title3064">breadam</title>
  <defs
     id="defs4" />
  <sodipodi:namedview
     id="base"
     pagecolor="#ffffff"
     bordercolor="#666666"
     borderopacity="1.0"
     inkscape:pageopacity="0"
     inkscape:pageshadow="2"
     inkscape:zoom="1.2588957"
     inkscape:cx="182.05998"
     inkscape:cy="200.27141"
     inkscape:document-units="px"
     inkscape:current-layer="layer14"
     showgrid="false"
     inkscape:window-width="1366"
     inkscape:window-height="721"
     inkscape:window-x="-4"
     inkscape:window-y="-4"
     inkscape:window-maximized="1"
     fit-margin-top="0"
     fit-margin-left="0"
     fit-margin-right="0"
     fit-margin-bottom="0" />
  <metadata
     id="metadata7">
    <rdf:RDF>
      <cc:Work
         rdf:about="">
        <dc:format>image/svg+xml</dc:format>
        <dc:type
           rdf:resource="http://purl.org/dc/dcmitype/StillImage" />
        <dc:title>breadam</dc:title>
        <dc:creator>
          <cc:Agent>
            <dc:title>çağatay fuat yaman</dc:title>
          </cc:Agent>
        </dc:creator>
        <dc:publisher>
          <cc:Agent>
            <dc:title>çağatay fuat yaman</dc:title>
          </cc:Agent>
        </dc:publisher>
        <dc:rights>
          <cc:Agent>
            <dc:title>all rights reserved</dc:title>
          </cc:Agent>
        </dc:rights>
      </cc:Work>
    </rdf:RDF>
  </metadata>
  <g
     inkscape:groupmode="layer"
     id="layer3"
     inkscape:label="hair"
     style="display:inline"
     transform="translate(-16.934262,55.690064)">
    <path
       id="path3143"
       style="fill:none;stroke:#000000;stroke-width:1.11551595px;stroke-linecap:butt;stroke-linejoin:miter;stroke-opacity:1;display:inline"
       d="m 84.795354,-23.094482 c -0.172885,-0.162919 -2.585522,-2.65897 -2.69167,-2.467981 -0.02951,0.05314 0.369085,0.425158 0.621159,0.651922 0.865675,0.778773 1.767869,1.4813 2.691662,2.188589 2.866049,2.194291 5.892927,4.439674 7.505625,7.776458 0.951974,1.969728 1.242311,4.083447 1.242311,6.2398218 0,0.1376322 -0.09728,2.4186719 0.103439,2.328281 0.156178,-0.070211 0.822305,-1.0398329 0.93172,-1.1641442 0.625413,-0.7106593 1.269711,-1.4024192 1.863448,-2.1420312 0.719233,-0.8958344 1.278292,-1.8562944 1.863477,-2.8404954 0.887165,-1.492082 1.737275,-2.994732 2.484605,-4.563419 2.51031,-5.269295 -1.37703,2.832194 1.24231,-2.840525 1.16194,-2.516334 2.6369,-4.936368 4.45164,-7.031423 1.28892,-1.488055 2.71297,-3.003459 4.39983,-4.051226 2.13327,-1.325092 0.60002,0.578952 0.15533,1.210701 -0.40757,0.578974 -0.82384,1.151795 -1.24231,1.722945 -2.86599,3.911821 -6.03639,7.590746 -8.90323,11.501742 -2.213946,3.020336 -4.238864,6.196673 -6.004487,9.4993967 -0.524366,0.9809265 -1.002748,1.9857939 -1.501104,2.9801886 -0.797054,1.5905678 -1.688105,3.24320731 -2.277566,4.93599282 -0.502015,1.44166798 -0.414082,1.40945428 -0.414082,2.70081388 0,0.094525 -0.02944,0.3281123 0.05174,0.2793939 0.688124,-0.4126854 1.823625,-3.5178381 2.070525,-4.09780904 1.570138,-3.68817056 0.526375,-1.20251136 2.174046,-5.12223606 2.860558,-6.8050548 5.523548,-13.4869178 10.249028,-19.2781858 0.55446,-0.679506 1.16139,-1.314766 1.75993,-1.955767 1.48124,-1.586313 2.2879,-2.822928 4.55515,-2.747389 0.20752,0.0066 0.42228,-0.01362 0.62115,0.04651 0.23478,0.07036 0.15535,0.429905 0.15535,0.558801 0,1.487276 -0.88098,2.756817 -1.60468,4.004633 -3.34126,5.761159 -7.42007,11.022211 -11.07723,16.5773971 -0.475955,0.722972 -0.947523,1.4492485 -1.397593,2.188603 -0.343834,0.5648432 -1.333724,2.2838584 -0.983524,1.7229378 7.027407,-11.2550989 14.012277,-22.5367219 21.015737,-33.8067029 0.22253,-0.358133 -0.44353,0.717239 -0.6729,1.070987 -0.37455,0.577604 -0.76738,1.143287 -1.13877,1.722945 -1.65209,2.57811 -3.2034,5.219293 -4.81399,7.823037 -1.76124,2.847384 -3.60209,5.668495 -5.6939,8.288695 -0.99421,1.245343 -3.28487,3.768205 -4.34806,4.935963 -2.08194,2.28667 -4.163906,4.5802502 -6.366846,6.7520511 -0.736727,0.7263133 -3.504333,3.6938213 -4.813925,3.399282 -0.04916,-0.012143 0.0935,-0.4171652 0.207055,-0.6053506 0.234353,-0.3883596 0.523806,-0.7408117 0.776425,-1.1175872 0.947661,-1.413363 1.908651,-2.8178723 2.846958,-4.2374763 2.294154,-3.470979 4.456623,-7.005914 6.522103,-10.616983 1.23916,-2.166355 3.10611,-5.357912 3.41637,-7.869624 0.0608,-0.492955 0,-0.993387 0,-1.490087 0,-0.06219 0,0.124054 0,0.186257 0,0.170751 0.0115,0.341876 0,0.512222 -0.0227,0.32701 -0.0634,0.652563 -0.10345,0.97788 -0.24967,2.021466 -0.47899,4.03767 -0.77645,6.053535 -0.62768,4.253807 -1.53987,8.428145 -2.69165,12.5727649 -0.11347,0.4082085 -1.522021,5.1855052 -1.811718,5.7741495 -0.595694,1.2103184 -0.808115,3.14134064 -2.12227,3.44588232 -0.958914,0.22217948 -0.978638,-1.72187002 -1.294071,-2.65425252 -0.33752,-0.9976697 -0.960548,-5.8062227 -1.035263,-6.426079 -0.459122,-3.8090732 -0.462235,-4.0820632 -0.517631,-7.8696242 -0.02635,-1.800361 0,-3.60109 0,-5.401627 0,-0.465621 0,-0.931316 0,-1.396951 0,-0.09331 0,-0.372529 0,-0.279423 0,3.790828 -0.157481,7.580656 -0.414096,11.362057 -0.175292,2.581856 -0.382509,5.1537186 -0.621174,7.7298936 -0.05593,0.60499 -0.03503,1.2205557 -0.155354,1.8160886 -0.017,0.0832 -0.07859,-0.1517627 -0.10344,-0.2328436 -0.06292,-0.2037731 -0.151409,-0.3994727 -0.207048,-0.6053653 -0.09992,-0.3691142 -0.167107,-0.7463388 -0.258838,-1.1175358 -0.372352,-1.5074409 -0.731884,-3.0184071 -1.138761,-4.5168985 -1.021816,-3.763127 -2.216289,-7.446269 -3.623404,-11.082634 -1.03513,-2.675096 -1.459537,-3.776691 -2.691677,-6.239837 -0.175667,-0.351193 -1.20379,-2.31025 -1.656414,-2.887052 -0.03834,-0.04857 -0.0099,0.124863 0,0.186257 0.0421,0.265586 0.100356,0.528391 0.155361,0.791615 0.145345,0.697125 0.662859,3.065214 0.776447,3.538997 1.450147,6.048361 3.577952,11.956522 6.677403,17.3690053 0.752079,1.3133531 1.446216,2.2546187 2.381086,3.3993262 0.253988,0.3109585 0.784344,1.0836447 0.931735,0.8847363 0.0059,-0.0081 -0.191983,-0.4840273 -0.207063,-0.5122367 -0.766533,-1.436612 -1.548669,-2.7902001 -2.225783,-4.2840404 -1.365805,-3.0131887 -2.649889,-6.0537487 -3.623397,-9.2200177 -0.326363,-1.061411 -0.679227,-2.12088 -0.87996,-3.213025 -0.163222,-0.888033 -0.16738,-1.798757 -0.207078,-2.700795 -0.01487,-0.327525 -0.07612,-2.609353 0.155354,-3.21304 0.0774,-0.201955 0.910355,-0.148466 0.93175,-0.139796 1.130106,0.465974 1.977595,2.25743 2.432839,3.213054 1.640047,3.442572 2.95797,7.62014 3.364581,11.408628 0.121118,1.127148 0.08552,2.265813 0.10344,3.3992751 0.03025,1.8934455 0,3.7873473 0,5.6810209 0,0.5743077 0.01148,1.1487184 0,1.7229084 -0.0074,0.3431716 0.209499,0.8836913 -0.10344,1.02445134 -0.103446,0.0465201 -0.958869,-3.93908784 -0.98348,-4.05120424 -0.543522,-2.4752526 -0.918193,-4.9441907 -1.294071,-7.4505305 -0.373177,-2.488117 -0.608912,-3.460948 -0.724672,-5.960407 -0.04092,-0.883794 0,-1.769494 0,-2.654253 0,-0.753176 -0.173731,-3.749857 0.207019,-4.563419 0.03658,-0.07807 0.172568,0 0.25883,0 0.103454,0 0.214783,-0.03923 0.310591,0 0.845605,0.345763 1.235179,2.784085 1.397598,3.399297 0.908898,3.442748 1.90071,6.865294 2.691663,10.33759 0.506157,2.2220749 1.306236,5.356499 1.345831,7.6367807 0.02178,1.2581339 0.780229,2.9302315 -0.155355,3.77183832 -0.752027,0.6764776 -0.456414,-1.97408262 -0.776432,-2.93367362 -0.199283,-0.5975641 -0.514592,-1.1499917 -0.776432,-1.7229231 -1.743795,-3.8158217 -3.58275,-7.5822163 -6.056266,-10.9895273 -0.990199,-1.363995 -2.03684,-2.838987 -3.67515,-3.445854 -0.175409,-0.06484 -0.01818,0.385379 0.05174,0.558823 0.409349,1.012654 0.966089,1.986552 1.501126,2.93361 1.628153,2.882151 3.386182,5.770447 6.056258,7.8230594 0.770824,0.5925669 1.918064,1.2825237 2.898696,1.4901017 0.388256,0.082119 0.793698,0 1.190536,0 0.293347,0 0.586657,0 0.879989,0 0.03437,0 0.0779,0.023183 0.103439,0 0.09628,-0.086704 -0.240151,-0.096948 -0.362336,-0.1397739 -0.208718,-0.073081 -0.409349,-0.1692859 -0.621166,-0.2328215 -1.465064,-0.4393323 -3.009899,-0.7092831 -4.50335,-1.0244219 -4.152222,-0.8762065 -8.345143,-1.4758828 -12.526612,-2.1886028 -3.340344,-0.569347 -1.351219,-0.228722 -4.399856,-0.83818 -0.933588,-0.186654 -2.730052,-0.343215 -3.623405,-0.74505 -0.07859,-0.03547 0.172571,0 0.258816,0 0.329872,0 0.830901,0 1.138792,0 1.25007,0 2.354842,0.150261 3.57162,0.465657 1.956736,0.507166 3.821287,1.253858 5.745702,1.8626458 2.635538,0.8337048 5.326427,1.4946867 8.023234,2.0954228 0.877958,0.1955745 1.751905,0.4158258 2.639916,0.5587863 1.947282,0.3134976 3.888351,0.2328583 5.849196,0.2328583 0.362345,0 0.724665,0 1.087005,0 0.25542,0 0.64787,-0.041508 0.46588,-0.1397738 -0.28954,-0.1563404 -0.62161,-0.216049 -0.93171,-0.3259575 -1.230102,-0.4359322 -1.146173,-0.443358 -2.58818,-0.8381941 -2.317087,-0.6343917 -4.738386,-1.2424211 -7.143266,-1.3969805 -1.015885,-0.06528 -2.035994,0 -3.054006,0 -2.191304,0 -4.383881,-0.075245 -6.573875,0 -3.549926,0.1218974 -7.184254,0.5760225 -10.61139,1.5366807 -3.665011,1.0273363 -7.068928,2.7308963 -10.456078,4.4237481 -1.993532,0.9963228 -3.946103,2.028016 -6.004508,2.88704379 -0.711711,0.29704444 -1.422587,0.61806358 -2.174025,0.79164677 -0.538817,0.12432454 -1.103738,0.0738935 -1.656417,0.0933104 -0.344874,0.0136227 -0.690171,0 -1.035248,0 -0.03445,0 -0.07791,0.0231902 -0.103491,0 -0.113322,-0.10194027 0.222233,-0.21914585 0.36233,-0.27942037 0.896674,-0.38577052 1.090395,-0.43239958 2.174038,-0.60534838 2.544159,-0.40604771 5.147832,-0.3878842 7.712678,-0.55880401 3.982264,-0.2653657 7.941099,-0.709835 11.905452,-1.1641074 0.914887,-0.1047715 6.829842,-0.8097639 7.816193,-0.8847658 3.185419,-0.2421535 6.434977,-0.1960087 9.627895,-0.1396193 0.814224,0.014867 4.775472,0.1343057 5.59038,0.6053359 1.080016,0.624618 2.001514,1.4901311 3.002245,2.23519077 -1.000731,-0.74505967 -1.922229,-1.61057277 -3.002245,-2.23519077 -0.814908,-0.4712289 -4.776156,-0.5909625 -5.59038,-0.6053359 -3.192918,-0.056227 -6.442476,-0.1023428 -9.627895,0.1396193 -0.986351,0.074972 -6.901306,0.7798913 -7.816193,0.8847658 -3.964333,0.4542724 -7.923188,0.8987417 -11.905452,1.1641074 -2.564846,0.17091981 -5.168519,0.1527563 -7.712678,0.55880401 -1.083643,0.1729488 -1.277364,0.21957786 -2.174038,0.60534838 -0.140097,0.06014279 -0.475739,0.17738517 -0.36233,0.27942037 0.02555,0.0231902 0.06905,0 0.103491,0 0.345077,0 0.690374,0.0136227 1.035248,0 0.552679,-0.0190099 1.1176,0.0314182 1.656417,-0.0933104 0.751438,-0.17358319 1.462314,-0.49460233 2.174025,-0.79164677 2.058405,-0.85902779 4.010976,-1.89072099 6.004508,-2.88704379 3.38715,-1.6928518 6.791067,-3.3964118 10.456078,-4.4237481 3.427136,-0.9606582 7.061464,-1.4147686 10.61139,-1.5366807 2.189994,-0.075245 4.382571,0 6.573875,0 1.018012,0 2.038121,-0.06528 3.054006,0 2.40488,0.1545299 4.826179,0.7625888 7.143266,1.3969805 1.442007,0.3948361 1.358078,0.4022619 2.58818,0.8381941 0.3101,0.1098938 0.64217,0.1696613 0.93171,0.3259575 0.18199,0.098295 -0.21046,0.1397738 -0.46588,0.1397738 -0.36234,0 -0.72466,0 -1.087005,0 -1.960845,0 -3.901914,0.0805 -5.849196,-0.2328583 -0.888011,-0.1428796 -1.761958,-0.3632118 -2.639916,-0.5587863 -2.696807,-0.6007361 -5.387696,-1.261718 -8.023234,-2.0954228 -1.924415,-0.6087878 -3.788966,-1.3554798 -5.745702,-1.8626458 -1.216778,-0.315396 -2.32155,-0.465657 -3.57162,-0.465657 -0.307891,0 -0.80892,0 -1.138792,0 -0.0861,0 -0.337489,-0.03547 -0.258816,0 0.893353,0.401835 2.689817,0.558396 3.623405,0.74505 3.048637,0.609458 1.059512,0.268833 4.399856,0.83818 4.181469,0.71272 8.37439,1.3123963 12.526612,2.1886028 1.493451,0.3151388 3.038286,0.5850896 4.50335,1.0244219 0.211817,0.063366 0.412448,0.159792 0.621166,0.2328215 0.122222,0.042612 0.458578,0.053136 0.362336,0.1397739 -0.02561,0.023183 -0.06896,0 -0.103439,0 -0.293332,0 -0.586642,0 -0.879989,0 -0.396838,0 -0.80228,0.082119 -1.190536,0 -0.980632,-0.207578 -2.127872,-0.8975348 -2.898696,-1.4901017 -2.670076,-2.0526124 -4.428105,-4.9409084 -6.056258,-7.8230594 -0.535037,-0.947058 -1.091777,-1.920956 -1.501126,-2.93361 -0.06999,-0.173444 -0.22717,-0.623779 -0.05174,-0.558823 1.63831,0.606867 2.684951,2.081859 3.67515,3.445854 2.473516,3.407311 4.312471,7.1737056 6.056266,10.9895273 0.26184,0.5729314 0.577149,1.125359 0.776432,1.7229231 0.320018,0.959591 0.02451,3.61015122 0.776432,2.93367362 0.935526,-0.84160682 0.177161,-2.51370442 0.155355,-3.77183832 -0.0396,-2.2802817 -0.839674,-5.4147058 -1.345831,-7.6367807 -0.790953,-3.472296 -1.782765,-6.894842 -2.691663,-10.33759 -0.162397,-0.615212 -0.551993,-3.053534 -1.397598,-3.399297 -0.09578,-0.03923 -0.207048,0 -0.310591,0 -0.08609,0 -0.222223,-0.07807 -0.25883,0 -0.38075,0.813562 -0.207019,3.810243 -0.207019,4.563419 0,0.884759 -0.04092,1.770459 0,2.654253 0.115642,2.499459 0.351495,3.47229 0.724672,5.960407 0.375878,2.5063398 0.750549,4.9752779 1.294071,7.4505305 0.02458,0.1120502 0.879923,4.09780607 0.98348,4.05120424 0.313012,-0.14074534 0.09698,-0.68127974 0.10344,-1.02445134 0.01148,-0.57419 0,-1.1486007 0,-1.7229084 0,-1.8936736 0.03025,-3.7875754 0,-5.6810209 -0.01803,-1.1334621 0.01722,-2.2721271 -0.10344,-3.3992751 -0.406611,-3.788488 -1.724534,-7.966056 -3.364581,-11.408628 -0.455244,-0.955624 -1.302733,-2.74708 -2.432839,-3.213054 -0.02156,-0.0081 -0.854312,-0.06219 -0.93175,0.139796 -0.231401,0.603687 -0.16969,2.885515 -0.155354,3.21304 0.03974,0.902038 0.04372,1.812762 0.207078,2.700795 0.200733,1.092145 0.553597,2.151614 0.87996,3.213025 0.973508,3.166269 2.257592,6.206829 3.623397,9.2200177 0.677114,1.4938403 1.45925,2.8474284 2.225783,4.2840404 0.01487,0.02804 0.212671,0.5046637 0.207063,0.5122367 C 94.379608,-3.9433848 93.849186,-4.716071 93.595198,-5.0270295 92.660328,-6.171737 91.966191,-7.1130026 91.214112,-8.4263557 88.114661,-13.838839 85.986856,-19.747 84.536709,-25.795361 c -0.113684,-0.473783 -0.63116,-2.841872 -0.776447,-3.538997 -0.0549,-0.263224 -0.113014,-0.526029 -0.155361,-0.791615 -0.0099,-0.06138 -0.03834,-0.23511 0,-0.186257 0.452624,0.576802 1.480747,2.535859 1.656414,2.887052 1.23214,2.463146 1.656547,3.564741 2.691677,6.239837 1.407115,3.636365 2.601588,7.319507 3.623404,11.082634 0.406877,1.4984914 0.766409,3.0094576 1.138761,4.5168985 0.09173,0.371197 0.158975,0.7484216 0.258838,1.1175358 0.05564,0.2058926 0.144197,0.4015922 0.207048,0.6053653 0.02524,0.081309 0.08679,0.3160808 0.10344,0.2328436 0.12044,-0.5955329 0.09923,-1.2110986 0.155354,-1.8160886 0.238665,-2.576175 0.445882,-5.1480376 0.621174,-7.7298936 0.256688,-3.781401 0.414096,-7.571229 0.414096,-11.362057 0,-0.09331 0,0.186287 0,0.279423 0,0.465635 0,0.93133 0,1.396951 0,1.800537 -0.02635,3.601266 0,5.401627 0.05549,3.787561 0.05836,4.060551 0.517631,7.8696242 0.07463,0.6198563 0.697743,5.4284093 1.035263,6.426079 0.315433,0.9323825 0.335157,2.876432 1.294071,2.65425252 1.314155,-0.30454168 1.526576,-2.23556392 2.12227,-3.44588232 0.289697,-0.588659 1.698248,-5.3659263 1.811718,-5.7741495 1.15178,-4.1446199 2.06397,-8.3189579 2.69165,-12.5727649 0.29746,-2.015865 0.52678,-4.032069 0.77645,-6.053535 0.0403,-0.325317 0.0807,-0.65087 0.10345,-0.97788 0.0115,-0.170346 0,-0.341471 0,-0.512222 0,-0.06219 0,-0.248328 0,-0.186257 0,0.4967 0.0608,0.997132 0,1.490087 -0.31026,2.511712 -2.17721,5.703269 -3.41637,7.869624 -2.06548,3.611069 -4.227949,7.146004 -6.522103,10.616983 -0.938307,1.419604 -1.899297,2.8241133 -2.846958,4.2374763 -0.252619,0.3767755 -0.542072,0.7292276 -0.776425,1.1175872 -0.113698,0.1881854 -0.256144,0.5943038 -0.207055,0.6053506 1.309592,0.2945393 4.077198,-2.6729687 4.813925,-3.399282 2.20294,-2.1718009 4.284906,-4.4653811 6.366846,-6.7520511 1.06319,-1.167758 3.35385,-3.69062 4.34806,-4.935963 2.09181,-2.6202 3.93266,-5.441311 5.6939,-8.288695 1.61059,-2.603744 3.1619,-5.244927 4.81399,-7.823037 0.37139,-0.579658 0.76422,-1.145341 1.13877,-1.722945 0.22937,-0.353748 0.89543,-1.42912 0.6729,-1.070987 -7.00346,11.269981 -13.98833,22.551604 -21.015737,33.8067176 -0.3502,0.5609059 0.63969,-1.1581093 0.983524,-1.7229525 0.45007,-0.7393545 0.921638,-1.4655868 1.397593,-2.188603 3.65716,-5.5551861 7.73597,-10.8162381 11.07723,-16.5773971 0.7237,-1.247816 1.60468,-2.517357 1.60468,-4.004633 0,-0.128771 0.0796,-0.488399 -0.15535,-0.558801 -0.19887,-0.05961 -0.41363,-0.03967 -0.62115,-0.04651 -2.26725,-0.07564 -3.07391,1.161076 -4.55515,2.747389 -0.59854,0.641001 -1.20547,1.276261 -1.75993,1.955767 -4.72548,5.791268 -7.38847,12.473131 -10.249028,19.2782005 -1.647671,3.91971 -0.603908,1.4340508 -2.174046,5.12222136 -0.2469,0.57997094 -1.382401,3.68512364 -2.070525,4.09780904 -0.08123,0.048544 -0.05174,-0.1846668 -0.05174,-0.2793939 0,-1.2913596 -0.08797,-1.2591459 0.414082,-2.70081388 0.589461,-1.69278551 1.480512,-3.34542502 2.277566,-4.93599282 0.498356,-0.9943947 0.976738,-1.9992621 1.501104,-2.9801886 1.765623,-3.3027237 3.790541,-6.4790607 6.004487,-9.4993967 2.86684,-3.910996 6.03724,-7.589921 8.90323,-11.501742 0.41847,-0.57115 0.83474,-1.143971 1.24231,-1.722945 0.44475,-0.631749 1.978,-2.535793 -0.15533,-1.210701 -1.68686,1.047767 -3.11091,2.563171 -4.39983,4.051226 -1.81474,2.095055 -3.2897,4.515089 -4.45164,7.031423 -2.61934,5.672719 1.268,-2.42877 -1.24231,2.840525 -0.74733,1.568687 -1.59744,3.071337 -2.484605,4.563419 -0.585185,0.984201 -1.144244,1.944675 -1.863477,2.8404954 -0.593737,0.739612 -1.238035,1.4313719 -1.863448,2.1420312 -0.109378,0.124326 -0.775475,1.093882 -0.93172,1.1641442 -0.200969,0.090347 -0.103439,-2.1906047 -0.103439,-2.328281 0,-2.1563748 -0.290337,-4.2700938 -1.242311,-6.2398218 -1.612698,-3.336784 -4.639576,-5.582167 -7.505625,-7.776458 -0.923793,-0.707289 -1.825987,-1.409816 -2.691662,-2.188589 -0.252074,-0.226764 -0.650686,-0.598793 -0.621159,-0.651922 0.106052,-0.190989 2.518785,2.305047 2.69167,2.467981 M 33.136067,26.637724 c -0.106297,0.07295 -4.006262,2.741146 -4.192798,2.887072 -0.548406,0.428974 -1.035265,0.931317 -1.55288,1.396955 -0.281339,0.253112 -1.502617,1.514065 -1.966999,1.722935 -0.04233,0.01901 0.06905,-0.06216 0.103505,-0.09331 0.19451,-0.174985 0.260702,-0.293013 0.517615,-0.41909 0.732271,-0.359302 1.446791,-0.82231 2.070531,-1.350408 2.307837,-1.954002 4.452512,-4.073456 6.780925,-6.006975 3.196758,-2.65459 6.420989,-5.288522 9.886702,-7.590188 2.308504,-1.533172 5.857147,-3.621882 8.282052,-4.935989 7.488044,-4.0579628 15.499402,-6.9997673 23.086206,-10.8498163 2.73258,-1.38667913 5.336832,-3.0029268 8.075022,-4.3772028 0.571084,-0.2865909 3.542536,-1.7021028 4.348091,-1.9091657 1.187408,-0.305218 2.565165,-0.1306626 3.778663,-0.093312 0.206967,0.00662 0.414125,0 0.621166,0 0.03437,0 0.137956,0 0.103432,0 -3.263298,0 -6.577952,-0.1913575 -9.783168,0.5588157 -6.052073,1.416424 -11.673103,4.45934673 -17.133493,7.3108068 -7.047072,3.6799991 -13.934395,7.6323933 -20.291043,12.4330283 -3.397673,2.566011 -4.284916,3.51866 -7.453856,6.239808 -3.819575,3.279908 -2.60517,2.069522 -6.004474,5.261944 -1.113518,1.04573 -2.23097,2.088009 -3.312825,3.166452 -0.228992,0.228288 -0.861538,0.961305 -0.62116,0.745058 0.168674,-0.151752 0.289968,-0.400509 0.465876,-0.558787 0.258586,-0.232617 0.705153,-0.42915 0.98349,-0.605349 1.251576,-0.792321 0.752891,-0.456279 2.225795,-1.536677 1.557458,-1.142413 3.092066,-2.315961 4.658659,-3.445846 3.583338,-2.584404 7.202773,-5.238603 10.973721,-7.54364 1.351143,-0.82591 2.747505,-1.576133 4.141034,-2.328298 7.144505,-3.856319 14.784871,-6.755432 22.361555,-9.6391331 3.860192,-1.4691488 8.735379,-3.6266824 12.837181,-4.0512072 0.943944,-0.0977607 1.897964,0 2.846928,0 0.828214,0 1.771997,-0.42196212 2.484628,0 0.833175,0.4933623 0.681611,2.1288929 1.60464,2.4214473 0.987697,0.3129699 1.92621,-0.8219589 2.9505,-0.977904 0.217057,-0.033037 0.633663,0.5122389 0.414089,0.5122389 -0.232564,0 -0.490445,-0.504607 -0.672912,-0.4656783 -0.928497,0.1982188 -1.906178,1.464605 -2.691677,0.9313434 -0.770626,-0.5232291 0.372705,-1.9648029 -0.05174,-2.79394912 -0.49085,-0.9588109 -3.544274,-0.82816225 -4.089276,-0.83818089 -2.574387,-0.0462478 -3.582956,-0.0749724 -6.211546,0.4656518 C 77.451803,1.5676245 71.588125,4.4297634 65.850054,7.1263433 59.18089,10.260433 52.399635,13.671826 46.076649,17.463892 c -1.179452,0.707398 -2.31051,1.492585 -3.468106,2.23519 -3.388625,2.173836 -6.678552,4.465659 -9.990222,6.752034 -0.510318,0.352289 -1.049555,0.662212 -1.552881,1.024439 -0.01476,0.0094 0.0361,0.0068 0.05183,0 0.09695,-0.04369 0.164701,-0.136812 0.258814,-0.186271 1.451422,-0.761645 -1.104687,0.709095 1.087023,-0.605349 1.188812,-0.712993 2.280658,-1.485155 3.416349,-2.28171 0.55164,-0.38693 3.009434,-2.028057 3.519873,-2.328298 3.129755,-1.840923 6.518164,-3.234358 9.886691,-4.56346 4.600034,-1.814979 9.269217,-3.451872 13.717147,-5.634433 5.005528,-2.4561684 9.684454,-5.5239158 14.597122,-8.1490014 3.084067,-1.647964 6.297371,-3.11456492 9.576132,-4.33061431 2.740207,-1.01631009 2.808217,-0.94215459 5.538613,-1.76950069 1.931288,-0.5852294 3.856115,-1.1714302 5.797457,-1.7229452 0.811596,-0.23054 1.601099,-0.556917 2.432869,-0.6984718 0.25512,-0.043275 0.51759,0 0.77644,0 0.069,0 0.20703,0.069033 0.20703,0 0,-0.076459 -0.16748,-0.012143 -0.67292,0.1397517 -1.460086,0.4378457 -2.829674,1.0142141 -4.244538,1.5832376 -4.27193,1.7180438 -8.481763,3.57150591 -12.578391,5.6810216 C 77.446754,6.2070278 70.873543,10.444749 64.607796,15.182264 58.550732,19.76204 52.590142,24.722126 47.629618,30.50239 c -2.804656,3.268124 -4.53939,5.884459 -6.780924,9.545978 -2.508488,4.097565 -4.647325,8.361999 -6.573887,12.759009 -0.296855,0.677502 -1.544054,3.673594 -1.863468,4.656569 -0.118121,0.36367 -0.203464,0.739233 -0.258817,1.117588 -0.03364,0.230365 -0.113187,0.901975 0,0.69847 0.08941,-0.160907 0.117622,-0.35125 0.207064,-0.512212 0.786436,-1.414956 1.59166,-2.835346 2.484614,-4.190918 1.942176,-2.94837 4.12839,-5.753619 6.315064,-8.521531 3.388131,-4.288705 6.84641,-8.468775 10.663145,-12.386474 3.981561,-4.086927 8.235092,-7.865927 12.423093,-11.734571 4.611309,-4.259728 2.590755,-2.516916 7.039734,-6.519188 3.392164,-3.051607 6.876733,-6.0018113 10.404315,-8.8940746 1.215242,-0.9963508 2.363335,-1.8216134 3.623412,-2.7473745 1.50722,-1.1073132 3.55839,-2.7469704 5.486859,-3.02678232 0.25613,-0.0369453 0.517617,0 0.776433,0 0.175078,0 1.093955,-0.0900743 1.294078,0 0.07393,0.0331698 -0.188428,0.11245863 -0.155354,0.18627191 C 93.104045,1.8005785 94.889517,2.9817853 94.060817,3.4477064 93.074636,4.0021785 92.177697,2.0304039 91.058572,1.8644666 90.424269,1.7703467 89.920694,2.4560473 89.350397,2.7491949 88.592114,3.139025 87.823718,3.5094507 87.072831,3.9133575 83.907629,5.615946 80.879993,7.5248702 77.910828,9.5478177 72.43466,13.27876 67.16561,17.296526 62.019623,21.468646 c -4.148335,3.363241 -8.157337,6.836567 -11.750146,10.803242 -2.49152,2.750732 -3.805189,4.535062 -5.90099,7.54366 -0.70499,1.012047 -3.195402,4.784926 -3.933968,6.006976 -0.550253,0.91047 -1.394669,2.315596 -1.656405,3.445859 -0.06297,0.27218 0,0.558773 0,0.83818 0,0.170738 -0.126806,0.398042 0,0.5122 0.07841,0.07052 0.166112,-0.394145 0.310569,-0.745032 0.329785,-0.801005 0.610129,-1.389956 1.035253,-2.188601 1.937018,-3.638805 4.309869,-7.156656 6.987982,-10.291008 1.168477,-1.367492 4.944787,-5.261 6.211545,-6.426067 1.60484,-1.476053 5.77075,-4.828425 7.453849,-6.193274 3.273868,-2.654764 6.551505,-5.334232 9.990236,-7.776432 3.846921,-2.732137 8.074692,-4.915898 12.474846,-6.612364 2.0527,-0.7914043 4.147607,-1.4734236 6.211538,-2.2351492 0.25309,-0.093446 3.911556,-1.3524967 4.089261,-1.6298004 0.560465,-0.8746824 -0.423016,-2.6323407 0.517624,-3.073329 1.036499,-0.4859054 2.02059,1.2170069 3.157541,1.3504066 0.592353,0.069445 1.063891,-0.5400171 1.604661,-0.7916335 0.691039,-0.3215182 1.846001,-0.8007617 2.588101,-1.0709722 0.22481,-0.081985 1.389,-0.4583025 1.7082,-0.5588283 0.1031,-0.032633 0.21786,-0.03749 0.31056,-0.09331 0.002,-6.881e-4 0.002,-0.2317271 0,-0.2328325 -0.0896,-0.053534 -1.28045,0 -1.29406,0 -1.01893,0 -1.95072,0.0325 -2.950479,0.2793667 -0.488267,0.120549 -0.958016,0.3119035 -1.449367,0.4191037 -1.218355,0.2657204 -2.558556,0.1433778 -3.675157,0.6984975 -0.941523,0.4680783 -1.399129,1.5854102 -2.225806,2.2351488 -0.824652,0.6481468 -1.80878,1.0635427 -2.691669,1.6298137 -0.472237,0.3028829 -5.82365,3.9396781 -6.108011,4.1443151 -3.364545,2.421407 -6.627477,5.002858 -9.938466,7.497106 -2.644914,1.992473 -5.332818,3.938385 -7.91973,6.006976 -0.921229,0.736644 -1.824553,1.495538 -2.743424,2.235162 -0.979599,0.788505 -0.429142,0.495695 -1.190518,0.838168 -0.03438,0.01658 0.07393,-0.02265 0.103451,-0.04652 0.453189,-0.366921 0.895929,-0.74661 1.345826,-1.117601 0.793189,-0.654081 3.144054,-2.647794 3.726916,-3.166452 3.904781,-3.47454 7.720816,-7.052274 11.543115,-10.61697 2.891086,-2.69627 5.723464,-5.4663114 9.110264,-7.5436803 0.689545,-0.4229469 3.259751,-1.8313635 4.089246,-1.9557417 0.956684,-0.1430548 1.932481,-0.093311 2.898747,-0.1396024 -1.250848,0.6459624 -2.70446,1.2853858 -3.88222,2.1419996 -0.82923,0.6031228 -2.338165,1.9129558 -3.054027,2.5145552 -0.740628,0.622433 -1.510054,1.2117485 -2.225791,1.862647 -1.168833,1.0628956 -4.579949,4.5168986 -5.538627,5.4947356 -4.144138,4.227095 -8.130869,8.565908 -11.957211,13.084965 -5.129765,6.058472 -9.934623,12.353045 -14.286551,18.998838 -1.317579,2.012065 -2.573609,4.06527 -3.778682,6.146686 -1.936661,3.345077 -3.941162,6.96913 -4.917469,10.756652 -0.07149,0.277371 -0.302337,1.544055 -0.155352,1.676362 0.206234,0.18557 2.182115,0.509111 2.536379,0.372529 1.185179,-0.45694 2.155748,-2.01789 2.846944,-2.933646 6.137267,-8.131014 10.050239,-17.626445 15.114751,-26.402768 4.24045,-7.348321 9.666045,-14.260589 16.460579,-19.417908 3.564668,-2.705696 7.583791,-4.779815 11.439568,-7.031415 0.632486,-0.369306 1.226709,-0.8023253 1.86347,-1.1641483 0.129044,-0.073221 0.414118,-0.1764954 0.414118,-0.1862579 0,-0.1032893 -0.633118,0.3318341 -1.19055,0.6053756 -0.547681,0.2687136 -1.136023,0.4879136 -1.708175,0.6984966 -3.581992,1.318247 -6.621175,3.564777 -9.369072,6.19322 -2.650676,2.535443 -5.058253,5.341488 -7.298558,8.242125 -5.672493,7.344437 -10.239412,15.388943 -14.234762,23.748529 -1.685997,3.527641 -3.351517,7.089248 -4.710433,10.756694 -0.194873,0.525899 -0.3879,1.05258 -0.569391,1.583239 -0.09459,0.276669 -0.180528,0.556413 -0.258818,0.838181 -0.02549,0.09115 -0.03877,0.18557 -0.05158,0.27938 -0.006,0.03101 0,0.12392 0,0.09331 0,-0.968237 -0.03263,-1.925429 0.155351,-2.887099 0.16933,-0.866282 0.431496,-1.712094 0.672925,-2.561104 0.728318,-2.561251 1.489362,-4.931337 2.381088,-7.45049 1.565784,-4.423467 3.284329,-8.865192 5.538617,-12.991877 3.225514,-5.904522 7.46889,-10.798966 11.957203,-15.739217 3.1272,-3.442042 6.3782,-6.796316 9.783186,-9.96506 1.384175,-1.2881227 1.075645,-1.0678847 2.381079,-2.0954521 0.203339,-0.1601253 0.41113,-0.3144926 0.621181,-0.465651 0.135203,-0.097357 0.267559,-0.2003089 0.414126,-0.2793939 0.03032,-0.016589 0.137948,0 0.103439,0 -1.714872,0 -2.599535,0.6742528 -3.985755,1.676375 -0.572961,0.414182 -1.173086,0.795179 -1.708167,1.257258 -2.973646,2.568074 -5.558329,5.77487 -7.97147,8.847472 -6.171632,7.858187 -11.650835,16.28537 -16.35706,25.09895 -3.476078,6.509803 -7.215003,14.203819 -9.265565,21.327102 -1.200241,4.169491 -1.168789,5.675843 -1.552874,9.778803 M 124.65275,-2.1785309 c 0.1188,-0.016559 2.57637,-0.4623606 3.31279,-0.3259648 1.70592,0.3159483 2.92827,2.56210051 3.62342,3.9115363 1.25167,2.4297533 2.23988,4.9462375 3.20932,7.4970793 2.97983,7.8409281 -0.806,-2.1949521 1.96697,5.2153421 0.53111,1.419258 1.10485,2.756706 1.44935,4.237492 0.41646,1.789899 0.46589,3.622894 0.46589,5.448189 0,0.327424 -0.17256,2.879669 0.25879,3.119904 0.32035,0.178383 1.89343,-0.208332 2.01875,-0.232833 M 121.4952,-4.4682108 c 0.94901,-0.5587716 1.84115,-1.2278049 2.84697,-1.6763442 0.91957,-0.4101073 6.48524,-1.9666368 7.14327,-2.1420165 3.60464,-0.9608201 5.53763,-1.4319165 9.26555,-2.0023385 4.78076,-0.73159 5.95287,-0.758143 10.87022,-0.838179 4.58606,-0.07471 7.13765,-0.120691 11.69839,0.605343 5.64986,0.8995659 10.9871,2.7784835 16.20175,5.0756776 4.76981,2.101178 9.2929,4.66178381 13.97597,6.9382753 3.81725,1.8556487 10.36162,5.0999577 14.80417,3.9581124 m -35.6646,-23.2363383 c -1.96454,0 -3.94003,-0.04534 -5.90096,0.09331 -2.56697,0.181415 -7.08798,0.758379 -9.4726,1.117573 -6.69824,1.008812 -13.379,2.349845 -19.87694,4.284055 -11.63511,3.4633034 -22.90547,8.5159454 -33.43878,14.5284795 -6.67538,3.8103784 -2.80164,1.6793144 -9.524383,6.7054597 -0.859949,0.6429692 -1.761348,1.2333908 -2.69167,1.7694838 -0.227846,0.130663 -0.550896,0.274984 -0.776425,0.139791 -0.04938,-0.0298 0.08877,-0.234788 0.310584,-0.419077 0.850661,-0.7063994 2.438351,-1.1790892 3.157511,-1.4901301 -0.345071,-1.288312 -1.197248,-2.5410933 -1.035219,-3.8649493 0.08313,-0.6788238 1.090843,-0.8261796 1.6564,-1.21071 2.099993,-1.4278606 4.998642,-3.17532441 7.039722,-4.47028435 10.07204,-6.39025025 1.01262,-0.77716595 12.37132,-7.77650035 7.34018,-4.5230879 14.68721,-9.0467799 22.36157,-12.9918289 5.11895,-2.631409 8.31113,-4.084367 13.6654,-6.006986 3.0059,-1.079346 7.00846,-2.32388 10.24901,-2.840488 2.14365,-0.341744 3.94393,-0.279408 6.05625,-0.279408 M 92.870355,-5.2132396 c -0.897226,0.077673 -1.806617,0.06631 -2.69167,0.2328215 -0.37601,0.070652 -1.276098,0.7892306 -1.552871,0.9778723 -1.352367,0.9216669 -2.655196,1.8878375 -3.985756,2.8405031 C 78.131839,3.4978946 72.63678,9.5059489 67.299526,15.415366 61.029632,22.357353 54.744982,29.348989 49.493104,37.114997 c -2.943031,4.351886 -4.703823,7.55097 -7.143292,12.153656 -0.886548,1.672788 -3.557798,6.95992 -4.503347,8.987196 -0.580249,1.244097 -1.953267,3.799362 -1.656412,5.401614 0.04383,0.236689 0.207044,0.434597 0.310569,0.651909 M 153.63995,-19.322671 c -4.66029,0.26204 -5.93514,0.199689 -10.71495,1.071031 -4.29026,0.782099 -8.11436,1.876452 -12.26776,3.213025 -9.02562,2.904517 -17.68227,6.8030825 -26.24377,10.8498415 -1.9254,0.9100681 -3.83135,1.8607688 -5.745672,2.793924 -1.588309,0.77427738 -3.101446,1.72494413 -4.762202,2.32829658 -1.05509,0.38331682 -2.296598,0.12850482 -3.312807,0.60533442 -2.964763,1.3915608 -1.576239,2.5145699 -4.296309,2.5145699 -0.124694,0 0.243802,-0.054476 0.362343,-0.093311 0.310532,-0.1016717 0.396301,-0.1035594 0.724673,-0.2328193 1.127059,-0.4436046 2.103518,-2.1488764 3.209293,-2.1885875 0.98348,0.077669 1.982394,0.4228387 2.950478,0.2328458 1.000179,-0.1963303 1.82977,-0.89867105 2.74343,-1.35042054 0.783284,-0.38726746 8.903893,-4.41751816 9.110263,-4.51688766 0.48263,-0.2323578 11.91616,-5.5886798 12.21604,-5.7275778 6.80457,-3.1518514 13.71788,-6.5032664 21.11924,-8.0092804 3.52403,-0.717121 4.10077,-0.604239 7.45386,-0.698508 M 102.91236,6.0170348 c 2.08585,-0.5237007 4.09863,-1.5482073 6.26329,-1.7695242 1.25941,-0.1286395 2.56766,-0.04652 3.83046,-0.04652 2.83808,0 5.94524,0.1593033 8.74792,-0.04652 2.29952,-0.1688362 4.58403,-0.6424033 6.88445,-0.8381404 1.84017,-0.1566737 3.69399,-0.093311 5.53862,-0.093311 m -18.99696,-3.82623547 c 1.4321,-0.45016133 2.88601,-0.83610693 4.29633,-1.35041903 1.41769,-0.5170426 6.24567,-2.7668628 7.40209,-3.2596039 5.19496,-2.2137213 10.51144,-4.2622191 15.94295,-5.8207138 9.05972,-2.599616 18.47226,-4.270771 27.90015,-4.610028 2.59553,-0.09358 5.2175,0 7.81621,0 m -78.52424,13.5040737 c 0.86271,-1.1486301 1.52423,-2.4806178 2.58815,-3.445861 0.99441,-0.9022007 2.31175,-1.3664233 3.4681,-2.0488879 1.55258,-0.9163239 3.08459,-1.8684743 4.65866,-2.7473898 6.33898,-3.539497 12.8538,-6.887549 19.51458,-9.778819 5.18235,-2.249481 10.29642,-4.204144 15.68413,-5.913849 6.98274,-2.215826 14.20232,-4.057872 21.53337,-4.609984 1.60019,-0.12041 3.20928,-0.03098 4.81395,-0.04651 M 92.870355,8.5781462 c 1.46661,0 2.933234,0 4.399822,0 2.702105,0 5.248793,0.4805249 7.712683,1.6298148 1.56976,0.732234 2.99274,1.656944 4.39983,2.654252 1.04543,0.740946 1.99814,1.539537 3.31286,1.769497 0.3563,0.0623 1.96853,0.05138 2.22579,0.04652 0.41432,-0.0081 0.844,0.06783 1.24229,-0.04652 0.4349,-0.124729 0.79371,-0.434611 1.19056,-0.651923 M 92.145698,5.6831459 C 91.300217,5.4503274 90.474027,5.1305211 89.609287,4.9846624 86.954283,4.5368098 82.654912,6.1934441 80.291989,7.1732366 76.027171,8.9417084 71.893548,11.16789 67.920671,13.50618 c -6.843876,4.028068 -13.699389,8.552842 -19.20401,14.342236 -1.500229,1.577832 -3.668968,4.267858 -4.555146,6.426079 -0.294848,0.718104 -0.393396,1.508833 -0.46586,2.281737 -0.04935,0.52656 -0.200715,1.150611 0.103491,1.583212 0.317481,0.451453 1.000747,0.465679 1.501149,0.698498 M 85.934144,10.29314 c 0.258808,-1.0089047 0.316132,-2.0924045 0.776432,-3.026741 0.241631,-0.4904758 0.811531,-0.7343249 1.242311,-1.0710134 1.449006,-1.132623 2.940969,-2.2105942 4.451604,-3.2596281 6.134808,-4.2601754 12.667739,-7.995917 19.152249,-11.6880088 4.00387,-2.2796337 8.0205,-4.5374537 12.06076,-6.7520217 4.61195,-2.527948 9.29592,-5.048028 14.23478,-6.891729 1.13786,-0.424746 2.31208,-0.745059 3.46811,-1.11758 M 96.131423,6.2884811 c -0.500012,-0.6256153 -2.315114,0.6615368 -3.157555,0.093311 -0.02583,-0.017258 0,-0.062159 0,-0.093311 0,-0.1396024 -0.139759,-0.4190772 0,-0.4190772 1.061779,0 2.325573,1.0787263 3.157555,0.4190772 0.742424,-0.5886148 -0.593722,-2.0296897 -0.103446,-2.8404972 0.712388,-1.178388 2.188985,-1.6722485 3.312836,-2.4679946 1.551127,-1.09831908 3.139707,-2.1428195 4.710397,-3.2130403 8.32979,-5.6757366 16.80361,-11.211368 25.72615,-15.925461 6.92785,-3.660231 14.14625,-6.888388 21.79215,-8.707788 2.797,-0.665574 3.56987,-0.698273 6.21152,-1.024451 M 94.992648,11.22447 c -0.828215,0.263873 -1.647848,0.556374 -2.484636,0.791593 -0.02988,0.0081 -0.02951,-0.0836 0,-0.09331 0.819728,-0.261176 1.746827,-0.256039 2.484636,-0.698497 7.700402,-4.61818 -1.055524,-1.053619 5.435092,-3.5855698 6.18685,-2.4134237 12.51699,-4.440079 18.7899,-6.6123237 6.86851,-2.3784589 13.73354,-4.8099955 20.75692,-6.7054575 7.22876,-1.9509167 14.61004,-3.4703759 22.05096,-4.330605 5.59764,-0.647175 5.56708,-0.512222 10.76667,-0.512222 2.39118,0 4.13944,-0.191144 6.41859,0.419072 0.58482,0.1566638 1.10429,0.4967075 1.65639,0.7450725 M 99.237182,6.8938346 C 98.978381,6.1022283 98.39388,5.3491599 98.460742,4.5189892 c 0.03577,-0.4425801 0.675488,-0.577989 1.03527,-0.8381941 0.521078,-0.3768308 1.050438,-0.7447756 1.604628,-1.0710135 1.57688,-0.928161 4.87515,-2.55730055 6.31506,-3.25958759 3.54414,-1.72858271 7.11151,-3.40912921 10.66315,-5.12223461 8.65137,-4.1728587 17.39497,-8.4600854 26.65788,-11.1292354 3.47192,-1.000422 8.92457,-2.157383 12.57838,-2.607652 3.58869,-0.442232 6.23497,-0.381964 9.78317,-0.419093 M 93.232676,4.9380797 c 0.966266,-0.1551636 1.952948,-0.2142922 2.898747,-0.4656651 0.585097,-0.1555139 1.099667,-0.5071424 1.6564,-0.7450449 0.823777,-0.3520201 1.652293,-0.693131 2.484607,-1.0244256 4.17164,-1.6605445 8.38917,-3.15120109 12.68189,-4.4703227 7.16467,-2.2016294 14.46604,-4.1498451 21.8957,-5.2153705 5.10658,-0.7323408 10.22231,-0.9282979 15.37357,-0.977865 2.98486,-0.028703 5.96999,0 8.95497,0 1.6543,0 4.7778,-0.096948 6.52212,0.2328215 1.77563,0.3354587 2.56623,0.900854 4.08926,1.7229305 M 97.63255,5.6365772 c -0.724702,0.745045 -1.449374,1.4900899 -2.174038,2.2351481 0.09213,-0.01483 -0.322079,0.3673649 -0.207071,0.4190905 0.965634,0.434355 1.275378,-2.0090585 2.381109,-2.6542386 1.172578,-0.6842582 2.71725,-0.3542853 3.98575,-0.8382081 1.48661,-0.5671203 2.78973,-1.5312309 4.19276,-2.2817094 3.89062,-2.08105097 7.79288,-4.1402976 11.69839,-6.1932333 11.36891,-5.9760311 23.01703,-11.7793834 35.76816,-14.1094164 5.38217,-0.983502 10.7127,-0.94231 16.15001,-0.884758 m -33.59409,16.5853383 c 6.36249,1.78448194 12.08108,5.2250816 18.53109,6.7520512 3.09231,0.7320464 6.29328,1.2431262 9.47259,1.3503933 1.18988,0.040183 2.3811,0 3.57164,0 M 125.11859,2.3383435 c 1.24186,0.251144 3.62185,-0.5546745 4.7622,0.5122397 1.5418,1.4424503 2.13635,3.9744817 2.7952,5.8672523 0.28231,0.8110636 0.59155,1.6125135 0.87998,2.4214195 1.78714,5.01227 3.43556,9.381584 7.6609,12.852146 0.98135,0.806047 2.08177,1.739306 3.31277,2.142013 1.34208,0.43902 2.81912,0.222085 4.19283,0.139764 M 123.82454,-0.64980599 c 0.96623,0.23281927 1.91,0.5970688 2.89872,0.69847034 1.80465,0.18513926 5.46892,-0.40114255 7.03976,-0.60533439 1.63967,-0.21315879 3.27667,-0.44732486 4.91747,-0.65192226 5.92897,-0.739325 11.88048,-1.3771757 17.85818,-1.5366659 2.00077,-0.053357 4.00313,-0.023772 6.00449,0 1.91565,0.022815 3.83938,-0.050855 5.74567,0.1396045 4.46643,0.4464491 9.06687,1.90502587 13.09601,3.8649743 1.91561,0.9318696 4.03809,2.3423623 5.84921,3.4923929 M 94.371467,0.46776878 c 0.500365,-1.21072397 0.860913,-2.48920868 1.501126,-3.63212778 0.577509,-1.0309131 4.009218,-4.7300185 4.503387,-5.2619495 3.12915,-3.3683345 3.83612,-4.0433445 7.24677,-7.3108085 4.866,-4.661647 9.78439,-9.290618 15.01124,-13.550615 8.0294,-6.54409 -1.43771,1.465454 4.76218,-3.818375 m -1.08702,22.118725 c 8.71539,-3.860597 17.94934,-6.416806 27.22729,-8.521546 6.15698,-1.396723 12.41864,-2.615468 18.68637,-3.399296 4.87763,-0.609958 9.7426,-0.745059 14.64888,-0.745059 1.2423,0 2.48689,-0.07565 3.72691,0 2.53957,0.15456 4.90237,0.799387 7.29856,1.583238 m -54.35099,9.965061 c 3.41119,-1.102051 6.87555,-2.205037 10.4561,-2.607652 2.42946,-0.273218 4.80284,-0.289225 7.24682,-0.232858 1.39858,0.03209 2.80782,-0.01214 4.19279,0.186257 1.45749,0.207887 2.87936,0.624743 4.2963,1.024451 7.7966,2.199606 14.98519,6.1918081 21.94743,10.2444696 3.25371,1.8939312 3.85362,2.301102 6.88447,4.28405292 2.35539,1.54102068 4.62476,3.32704958 7.35031,4.14436968 M 98.719543,-4.607889 c -0.724643,0.7605796 -1.48612,1.4877319 -2.174031,2.2817242 -0.508895,0.5873563 -0.595032,1.0391484 -0.98348,1.67637279 -0.138957,0.22805908 -0.316199,0.43068626 -0.465879,0.65190899 -0.137956,0.20402993 -0.290969,0.59214743 -0.517616,0.74504494 -0.127395,0.0860295 -0.323367,0.0465201 -0.465857,0.0465201 -0.409157,0 -0.310583,-0.11947013 -0.310583,-0.558801 0,-0.24832525 -0.09688,-0.51633822 0,-0.74501771 0.190651,-0.45027977 0.532653,-0.82119191 0.828207,-1.21072171 5.524236,-7.2810605 -3.922116,4.9142915 4.089239,-2.8870895 1.049224,-1.0217282 1.366637,-2.621606 2.329357,-3.725232 0.68908,-0.7899887 6.95258,-5.7167961 7.55735,-6.1932651 4.27072,-3.36464 4.27023,-3.361218 8.64443,-6.565772 7.85901,-5.757561 16.05633,-11.500881 25.57083,-14.109431 2.85574,-0.782908 4.87301,-0.884707 7.76443,-0.884707 0.51253,0 2.61432,-0.20927 3.05401,0.186235 0.18287,0.164547 -0.4803,0.111513 -0.72467,0.139767 -1.55417,0.179258 -1.2765,0.110431 -3.00228,0.372536 -1.69197,0.256983 -3.38536,0.506187 -5.07275,0.791623 -4.74258,0.80222 -9.46934,1.868798 -13.92421,3.725225 -5.40388,2.251947 -10.34134,5.402812 -15.11474,8.754389 -5.91798,4.155144 -11.56148,8.773974 -16.512365,14.06283 -1.353059,1.4454582 -4.003735,4.6494896 -5.33155,6.2863714 -0.61182,0.7542283 -1.201693,1.52603647 -1.811687,2.28172121 -0.223571,0.27695269 -1.679597,1.99840539 -2.070526,2.56114379 -6.77e-4,6.742e-4 -0.500174,0.7266386 -0.310597,0.9312757 0.278421,0.3005505 1.049106,0.2673255 1.397598,0.2793938 0.551824,0.01901 1.119906,0.1305273 1.656414,0 1.365055,-0.3318878 2.602722,-1.7619195 3.519862,-2.7008006 0.564586,-0.5779345 1.366505,-1.01537693 1.656451,-1.76949702 0.536193,-1.39469818 -0.325574,-3.36086398 0.724643,-4.42373258 1.004507,-1.016606 2.961517,0.024434 4.244567,-0.6053358 1.49088,-0.7315607 2.45392,-2.2397376 3.72692,-3.3061755 3.71082,-3.1087394 5.85057,-4.6245704 9.8867,-7.4505084 1.86746,-1.307495 3.72228,-2.635788 5.64217,-3.864976 4.05699,-2.597526 7.44515,-4.427862 11.75015,-6.56575 7.0762,-3.514129 14.46506,-6.393542 22.15451,-8.242161 2.08271,-0.500696 4.18158,-0.908934 6.31509,-1.117572 0.14731,-0.01487 1.57522,-0.07308 1.60463,-0.04651 0.0957,0.08617 -0.0912,0.269863 -0.20707,0.325972 -0.40397,0.195685 -0.86042,0.256549 -1.29405,0.372544 -1.69991,0.454633 -3.24462,0.685041 -4.96925,1.024437 -3.13917,0.617729 -6.27195,1.426161 -9.26553,2.561088 -10.26177,3.890411 -19.52214,9.874339 -28.72839,15.739203 -7.1748,4.570756 -5.32822,3.282139 -12.37133,7.9627303 -4.29003,2.851042 -8.532038,5.7504809 -12.578356,8.9406512 -0.577634,0.45543 -1.151103,0.9166726 -1.708181,1.3969546 -0.271688,0.2342213 -0.529032,0.4853786 -0.776425,0.745045 -0.06447,0.067554 -0.240388,0.1945772 -0.155369,0.232859 0.204582,0.092097 0.449967,0.024544 0.672919,0 1.727251,-0.1895212 1.787025,-0.3161243 3.62339,-1.1175873 1.025997,-0.4477716 2.047784,-0.9063979 3.054027,-1.39699518 6.205995,-3.02582112 12.228395,-6.44768242 18.324045,-9.68562692 11.16071,-5.9284957 22.64578,-11.4008857 34.73287,-15.1804687 3.5517,-1.110573 7.18669,-2.049565 10.87019,-2.607652 1.5964,-0.241867 3.15544,-0.279393 4.76219,-0.279393 0.34509,0 0.69816,-0.07389 1.03524,0 0.48267,0.105713 1.25514,0.666568 1.65642,0.931315 M 129.93255,1.0731311 c 0.75921,-0.48117246 1.4502,-1.09229151 2.27755,-1.44352923 0.73179,-0.31066342 1.54762,-0.36762097 2.32936,-0.5122264 3.90432,-0.72215067 7.58163,-0.76483647 11.54311,-0.74504637 1.6392,0.0081 3.28523,-0.1047716 4.91748,0.046513 3.11425,0.2888061 7.25474,1.36818081 10.24904,2.18857645 4.23554,1.16049455 5.8601,1.72494485 9.99021,3.16646495 7.44727,2.5992776 15.05679,5.584487 23.08624,4.9825505 M 96.027888,-0.18414094 c -1.138775,-0.12405518 -2.272524,-0.43486653 -3.416349,-0.3725291 -0.423288,0.0231902 -3.795575,1.59122204 -3.882212,1.62978724 -3.670941,1.6341691 -2.373219,0.9495061 -6.263321,3.0733562 -5.04633,2.7551145 -9.927007,5.7517725 -14.855916,8.7078026 -2.251243,1.350124 -4.538583,2.639825 -6.780927,4.004632 -12.708862,7.735252 -27.277451,16.87896 -32.507073,31.6647 -1.218028,3.443728 -1.335206,5.382102 -1.138776,8.894033 0.06201,1.108958 0.06447,2.252004 0.414101,3.306216 0.303142,0.913895 1.000752,1.645307 1.501125,2.467954 M 94.630304,7.0335312 C 93.733079,6.8628072 92.851051,6.4807717 91.938627,6.521332 c -0.551345,0.024677 -1.010674,0.4454254 -1.501133,0.6984843 -0.683525,0.352667 -1.352492,0.7332195 -2.018765,1.1175741 -3.122642,1.8015086 -2.82103,1.6719126 -6.056229,3.8649626 -4.891591,3.31583 -9.700463,6.749756 -14.59714,10.058196 -2.181353,1.473815 -4.415267,2.870176 -6.57385,4.377175 -10.952168,7.646188 -21.624361,16.423442 -28.57309,28.032556 -1.852826,3.095484 -4.127246,7.591509 -3.468125,11.408616 0.118122,0.683584 0.552149,1.272778 0.828206,1.909194 M 91.420996,-0.78950256 C 90.420265,0.03317088 89.381874,0.81206197 88.418729,1.6784788 87.929675,2.1184426 87.515166,2.6350104 87.072934,3.1220213 85.816169,4.5060039 84.563401,5.8942072 83.34598,7.3129515 80.298414,10.864567 77.297664,14.447938 74.391026,18.116193 c -2.764176,3.488442 -5.277201,6.610342 -7.81621,10.291015 -5.832163,8.454731 -10.850789,17.47768 -14.804162,26.961582 -1.325327,3.179357 -2.520906,6.463756 -3.312815,9.825337 -0.561316,2.382829 -0.465854,2.520193 -0.465854,4.610035 0,0.356969 -0.100201,0.728365 0,1.071 0.08134,0.278126 0.345089,0.465638 0.517613,0.698497 m 85.563982,-83.864885 c 1.8784,-1.934682 4.59173,-2.450841 6.67741,-4.051212 1.02233,-0.784417 1.90706,-1.826613 2.74343,-2.793975 1.3394,-1.549178 2.53265,-3.142991 3.67515,-4.842798 3.22501,-4.798168 5.92525,-9.87035 7.03976,-15.599532 0.46037,-2.366581 0.71534,-4.816818 0.93173,-7.217702 0.0235,-0.260287 0.22393,-2.391014 0.10343,-2.607674 -0.0252,-0.04519 -0.10343,0 -0.15537,0 m -24.27658,30.593678 c 1.50112,-0.838158 2.94964,-1.778415 4.50335,-2.514546 0.8876,-0.420506 6.63296,-2.275034 7.24679,-2.467996 5.14965,-1.618608 10.36007,-2.984494 15.63239,-4.14434 2.98211,-0.656036 9.14929,-1.86935 12.16428,-2.421417 5.1699,-0.946638 10.38664,-1.828335 15.63237,-2.235153 3.49744,-0.271231 7.00449,-0.186271 10.50783,-0.186271 m -58.95785,17.415576 c 8.3114,-3.171575 17.08635,-5.196956 25.98493,-5.681006 1.89546,-0.103152 3.79571,-0.09331 5.69392,-0.09331 1.79474,0 3.59777,-0.08805 5.38333,0.09331 1.74699,0.177183 3.4711,0.558779 5.1763,0.97788 8.339,2.049433 16.14242,6.334238 22.30978,12.2933571 M 98.305454,6.7541645 c 0.983481,-0.6208683 1.919346,-1.3246251 2.950466,-1.862619 0.70289,-0.3667444 1.48383,-0.5589489 2.2258,-0.8382081 2.18812,-0.8235235 3.93467,-1.4900089 6.1598,-2.2816962 3.77618,-1.34362392 7.62535,-2.70982127 11.54309,-3.5855841 3.28804,-0.7349975 5.88369,-1.0366977 9.26558,-1.1641589 3.65137,-0.1376248 6.50701,-0.095609 10.09373,0.6985086 4.83418,1.0700957 9.29622,3.2843314 13.76895,5.3084918 3.10297,1.4042495 4.89195,2.1891946 8.075,3.306149 1.11057,0.3897211 2.22239,0.7869807 3.36457,1.0710127 2.32494,0.5781509 3.01876,0.5129005 5.22806,0.6053623 M 125.2739,-4.1422239 c 2.32951,-0.762736 4.69881,-1.5086847 7.14328,-1.8160739 3.39513,-0.426924 6.83667,-0.3725143 10.24904,-0.3725143 5.13946,0 4.60503,-0.1216324 9.99023,0.4190786 5.98384,0.600898 12.03179,1.5088834 17.85817,3.0267677 4.15256,1.0818269 6.49206,2.02360541 10.40434,3.67870232 1.54784,0.65482198 3.08974,1.32583868 4.60688,2.04889088 4.47977,2.1349609 8.77911,4.8838191 13.61364,6.1932333 1.92458,0.5212743 3.82813,0.558801 5.79743,0.558801 M 146.96254,-14.619537 c 0.94898,-0.946814 1.7994,-2.004016 2.84694,-2.840488 0.72516,-0.57904 3.18064,-1.32139 3.93399,-1.583223 3.09683,-1.076381 1.74981,-0.692201 5.07276,-1.583252 1.08409,-0.29072 4.20498,-1.109323 5.33156,-1.30383 1.85971,-0.321063 2.99805,-0.30789 4.86571,-0.325972 2.21708,-0.02156 2.67988,-0.163715 4.81395,0.558801 3.98873,1.350423 7.30748,4.272419 10.66315,6.705457 1.84917,1.340739 6.58732,4.329023 7.29855,6.7054725 0.19452,0.649994 0.10356,1.3815473 0.10356,2.0488659 M 168.7547,-51.359878 c 0.6595,0 0.71493,-0.18979 0.56937,0.651937 -0.20963,1.212394 -0.69154,2.410186 -1.13879,3.539011 -0.51423,1.297832 -1.74875,4.182956 -2.32932,5.401599 -2.04627,4.295271 -4.59419,8.447795 -7.81618,11.967377 -1.81905,1.987104 -3.87919,3.768588 -5.90096,5.541336 -1.07115,0.939175 -2.99263,2.637694 -4.08929,3.538982 -1.96167,1.612227 -4.00296,3.056728 -6.108,4.470327 -0.57204,0.38415 -1.13697,0.77875 -1.70817,1.164115 -0.46407,0.313122 -1.01424,0.523357 -1.39759,0.931344 -0.85614,0.911187 -1.51839,1.986788 -2.27757,2.980196 -0.18979,-0.776101 -0.56939,-1.529328 -0.56939,-2.328281 0,-0.05166 1.1966,-2.5996 1.24231,-2.700832 0.72027,-1.594939 1.38349,-3.159277 1.70816,-4.889398 0.35924,-1.914038 0.25881,-2.016881 0.25881,-4.051212 0,-1.206609 0.0302,-4.28591 -0.10342,-5.40162 -0.12783,-1.067984 -0.39255,-2.115441 -0.62113,-3.166468 -0.67669,-3.111359 -1.50209,-6.163127 -2.53638,-9.173454 -0.43901,-1.277673 -1.0249,-2.917977 -1.5529,-4.190904 -0.19451,-0.468984 -0.58106,-1.747894 -1.13879,-2.048895 m -11.23265,29.15014 c 0.75921,-0.558786 1.53417,-1.096767 2.27759,-1.676359 0.55132,-0.429853 1.05288,-0.921137 1.60464,-1.350409 4.15265,-3.230894 8.52645,-6.162339 12.83719,-9.173453 6.98861,-4.881619 2.2288,-1.724638 9.57614,-6.519178 4.63807,-3.026621 9.2821,-6.024274 14.23478,-8.521532 3.11649,-1.571455 3.64962,-1.693676 6.67739,-2.840525 m -40.89263,47.4504613 c 0.55211,-0.7916225 1.00051,-1.6668061 1.6564,-2.3748307 0.23145,-0.2498516 0.61396,-0.2966146 0.93172,-0.4191228 1.61333,-0.6219686 3.31682,-0.6984645 5.02101,-0.6984645 1.20246,0 4.40711,-0.024434 5.43509,0.093305 2.03599,0.2323357 6.86555,1.3432994 8.64438,1.7695095 6.09552,1.4604277 12.10693,3.2187359 18.22056,4.61001112 5.10314,1.16129018 7.7827,1.70417968 12.94069,2.46798138 7.23803,1.0718082 14.54407,1.6045576 21.79217,2.6076779 2.91293,0.4031649 4.66736,0.6957465 7.5056,1.2106827 1.34123,0.2433642 4.59204,0.570505 5.64216,1.769511 0.19265,0.2199819 0.17254,0.558787 0.2588,0.8381809 M 91.162173,1.3990981 C 90.713575,0.62298531 90.219627,-0.12858614 89.816364,-0.92918589 89.571142,-1.4160231 89.661003,-2.3002811 89.661003,-2.7452582 c 0,-0.6364008 -0.0852,-1.278498 0,-1.9092098 0.198305,-1.4717615 1.241928,-4.8506426 1.604654,-6.100092 0.776447,-2.674816 1.612065,-5.332308 2.381086,-8.009309 1.058416,-3.684394 1.199919,-4.493716 2.122263,-8.148973 0.751197,-2.977024 1.507714,-5.94345 2.174039,-8.940647 m -0.465798,32.9685232 c -1.050835,1.2362316 -1.794252,1.877843 -2.484599,3.11990206 -1.352713,2.43378484 0.425901,-0.6266 -0.517654,1.07102664 -0.0627,0.1124587 -0.186868,0.4530978 -0.20704,0.3259678 -0.08779,-0.5518962 0,-1.11757407 0,-1.67637507 0,-0.71400429 -0.04953,-1.42973443 0,-2.14202763 0.181002,-2.6053853 0.569391,-4.1753536 1.087,-6.7985934 0.825094,-4.1812776 1.712296,-8.2909616 2.898747,-12.3864786 0.874455,-3.018628 1.089121,-3.90201 2.277569,-6.705465 0.77238,-1.822013 1.70828,-4.302741 3.57163,-5.308491 M 92.715074,-0.55667004 C 88.957835,-5.4747488 86.447345,-11.16338 83.604788,-16.621831 c -2.942823,-5.651148 0.219884,0.628622 -2.639872,-4.796277 -0.730229,-1.385212 -1.428693,-2.787028 -2.122293,-4.190919 -0.737375,-1.492567 -1.552888,-2.959722 -1.552888,-4.65657 m 54.558055,26.2244648 c 0.069,0.8692222 0.0483,1.7502935 0.20704,2.6076521 0.23338,1.2596544 1.75898,3.7360367 2.48465,4.7031405 3.34308,4.4554783 7.9992,6.7276813 12.99246,8.8474986 3.8723,1.643906 0.69179,0.12055 4.45158,1.769498 1.27375,0.558598 2.51642,1.185508 3.77871,1.769484 M 99.030141,-2.0933507 c 2.253289,-1.2161841 4.427469,-2.5540521 6.470349,-4.0977685 1.73141,-1.3083633 3.19703,-2.9203918 4.60689,-4.5634408 2.25312,-2.625764 3.92364,-5.200232 5.12455,-8.47496 1.30574,-3.560715 2.09478,-7.282709 2.84693,-10.989527 0.55354,-2.727901 1.0002,-5.480575 1.8117,-8.149017 0.75077,-2.468555 1.81412,-4.725338 2.9505,-7.031386 1.65506,-3.358693 4.00232,-7.832972 7.76441,-9.220025 1.64541,-0.606631 3.35487,-0.512244 5.07277,-0.512244 M 66.160736,18.954374 c -0.810965,0.341462 -1.613189,0.704457 -2.43287,1.024439 -0.632506,0.246923 -2.173991,0.09331 -2.846952,0.09331 -0.940385,0 -1.915415,0.07052 -2.846949,-0.09331 -0.46433,-0.08144 -1.996227,-0.547407 -2.381075,-0.651923 -0.383909,-0.104234 -2.582502,-0.662279 -2.950495,-0.745045 -1.575135,-0.354232 -3.158717,-0.570209 -4.762163,-0.745045 -2.723258,-0.296964 -5.442363,-0.232847 -8.178539,-0.232847 -2.125866,0 -4.185928,-0.11475 -6.263311,0.419105 -5.363335,1.378535 -10.476401,5.556224 -12.888951,10.523833 -1.076655,2.216919 -1.022059,2.705385 -1.501123,5.075687 M 61.553821,21.981156 c -3.261147,1.760395 -6.364176,2.607651 -10.041969,2.607651 -0.622704,0 -1.934337,0.0445 -2.53638,-0.139589 -0.461876,-0.141234 -0.875734,-0.410514 -1.294069,-0.651936 -3.469788,-2.002411 -6.017548,-5.236054 -8.075022,-8.614654 -1.697612,-2.787734 -3.331303,-5.8188706 -4.192778,-8.9871695 -0.731581,-2.6905929 -0.682302,-3.8948978 -0.72467,-6.65889838 -0.0174,-1.13297482 -0.165573,-2.27836672 0,-3.39930992 0.594568,-4.0256443 3.35962,-8.0485872 6.418569,-10.6169692 1.346712,-1.130739 1.972907,-1.412774 3.416348,-2.235174 M 121.3917,1.6319307 c 0.87996,-0.4967057 1.71836,-1.07561101 2.63988,-1.49010317 0.53824,-0.24211005 1.13806,-0.31317157 1.7082,-0.46569227 1.65324,-0.44213489 2.78746,-0.77493676 4.50334,-1.02443516 1.85207,-0.2692737 4.16137,-0.3824866 6.00449,-0.4190639 2.22778,-0.044231 5.68637,-0.037902 7.86797,0.2793931 4.95732,0.72098709 9.72221,2.45926829 14.39008,4.1909148 6.98982,2.5929668 3.15413,1.1797908 10.04197,3.9114966 2.86677,1.1369512 6.0414,2.4115633 9.00675,3.3061755 3.85817,1.1639878 7.77852,1.7540848 11.80195,1.9091948 2.18964,0.08455 4.38257,0 6.57386,0 2.76068,0 5.52138,0 8.28207,0 M 94.164441,-4.9338464 c -0.448495,-0.2782451 -3.273529,-2.099765 -4.348069,-2.607689 -2.755964,-1.3026596 -5.859993,-1.9556489 -8.851456,-2.4214244 -3.850618,-0.5995222 -7.704529,-0.7450432 -11.594889,-0.7450432 -2.535026,0 -3.396223,-0.0801 -5.900976,0.232836 -0.903499,0.11286 -1.795227,0.306064 -2.691662,0.465636 -1.835771,0.3268696 -3.671435,0.689868 -5.486861,1.1176016 -2.284434,0.6422002 0.02481,0.036283 -1.190552,0.2793931 -0.03693,0.0081 -0.139764,0.035841 -0.103477,0.046513 0.413191,0.1237888 0.862957,0.014866 1.294069,0 1.96336,-0.066457 1.766457,-0.033045 3.830478,-0.6519222 2.492491,-0.7474428 4.889794,-1.7919635 7.246759,-2.8871115 2.446219,-1.13659 2.082697,-1.140689 4.606914,-2.095453 3.050648,-1.153877 5.848232,-1.676888 9.110274,-1.583222 0.829149,0.02384 1.675704,-0.04423 2.484599,0.139759 2.504735,0.569251 5.010832,2.417995 6.832676,4.144384 0.611687,0.579592 2.810998,2.9332419 3.312851,3.7252397 0.568935,0.8979174 0.633552,2.159054 1.449351,2.8405104 0.601089,0.5021246 -0.327893,-1.5598708 -0.724665,-2.2351525 -0.881932,-1.5010086 -4.308562,-2.41366 -5.900977,-2.5611025 -0.670388,-0.062042 -2.848474,-0.046513 -3.519877,-0.046513 -2.537015,0 -5.072844,0.046513 -7.609123,0.046513 -0.983502,0 -1.972551,0.1043741 -2.950496,0 -1.616329,-0.1725315 -3.184027,-0.7684911 -4.762177,-1.1175871 -1.610525,-0.356265 -3.174285,-0.37253 -4.81393,-0.37253 -0.51766,0 -1.038962,-0.06153 -1.552905,0 -1.653544,0.198327 -3.315282,0.908965 -4.86572,1.4901171 -0.229697,0.086166 -0.639996,0.2454285 -0.621131,0.279371 0.03364,0.060422 0.138132,0 0.207063,0 0.379589,0 0.759176,0 1.138766,0 0.534885,0 1.069765,0 1.604665,0 M 17.555422,56.346647 c 0,-1.210696 -0.142654,-2.42982 0,-3.632116 0.668065,-5.630294 3.342633,-10.801408 6.729174,-15.273545 C 32.406286,26.715764 44.51472,20.894197 56.066977,14.716901 62.430951,11.313923 68.778242,7.8756016 75.012171,4.2396012 78.301507,2.3211036 79.235914,1.700356 82.3625,0.00212287 c 1.543002,-0.83808596 3.363588,-1.94293077 5.124523,-2.32827297 0.850007,-0.1859555 1.821513,-0.019135 2.69167,-0.093305 0.776116,-0.065795 1.552872,-0.1240611 2.329326,-0.1862867 -1.51837,-0.9934011 -2.946364,-2.141045 -4.555125,-2.9801812 -0.641088,-0.3344357 -3.241639,-0.2328436 -3.726939,-0.2328436 -0.914484,0 -1.829888,-0.041655 -2.743422,0 -3.329764,0.1523809 -4.061516,0.3610113 -7.505621,1.1175726 -2.031745,0.4463166 -8.516367,2.0196555 -10.300804,2.4679813 -3.841227,0.9650813 -8.144091,2.10293405 -11.957214,3.16647746 -3.881135,1.08250174 -7.113127,1.97359464 -10.870189,3.35273614 -1.34746,0.4946023 -2.67671,1.0409839 -3.985747,1.6298004 -0.656056,0.2950897 -4.837318,1.8381321 -4.037493,3.5855421 0.131068,0.286203 0.483113,0.4035838 0.724669,0.6053486"
       inkscape:connector-curvature="0" />
  </g>
  <g
     inkscape:groupmode="layer"
     id="layer19"
     inkscape:label="left_ear"
     style="display:inline"
     transform="translate(-16.934264,-219.3999)">
    <path
       style="fill:none;stroke:#000000;stroke-width:1.11551595px;stroke-linecap:butt;stroke-linejoin:miter;stroke-opacity:1;display:inline"
       d="m 58.530194,321.03421 c -0.203599,3.65718 -3.636963,1.36055 -5.176285,2.51453 -1.897888,1.42279 -3.608127,3.07944 -5.176284,4.84286 -0.551008,0.61961 -1.221533,1.13606 -1.656439,1.86262 -0.89464,1.49469 -1.502403,3.11434 -2.070493,4.74968 -0.24424,0.70311 -0.654505,1.31974 -0.82821,2.0489 -0.605353,2.54134 0.18882,8.15618 1.242318,10.43071 0.525441,1.13447 2.938002,3.81091 4.037493,4.47035 0.996939,0.59787 2.267849,0.43528 3.312825,0.83819 0.955,0.36817 1.789291,0.91646 2.795201,1.11757 1.759074,0.35163 3.769528,0.0933 5.590373,0.0933 0.164865,0 2.703311,0 1.759926,0"
       id="path3871"
       inkscape:connector-curvature="0" />
  </g>
  <g
     inkscape:groupmode="layer"
     id="layer27"
     inkscape:label="right_ear"
     style="display:inline"
     transform="translate(-16.934264,-219.3999)">
    <path
       style="fill:none;stroke:#000000;stroke-width:1.11551595px;stroke-linecap:butt;stroke-linejoin:miter;stroke-opacity:1;display:inline"
       d="m 191.80224,310.6164 c 0.31112,-0.15913 0.61715,-0.32864 0.93333,-0.47744 0.19081,-0.0897 0.34394,-0.0925 0.54904,-0.13147 0.46405,-0.0887 0.93109,-0.18802 1.39086,-0.29634 0.38983,-0.0918 0.78109,-0.16141 1.17128,-0.24697 0.11744,-0.0258 0.22962,-0.0747 0.34769,-0.0987 0.71518,-0.14469 1.45149,-0.16462 2.17783,-0.16462 0.29427,0 0.60347,-0.024 0.89671,0 0.41098,0.0337 0.80862,0.21484 1.2079,0.31279 0.45939,0.11259 0.92595,0.21933 1.35427,0.42805 0.1343,0.0655 0.27265,0.12365 0.4026,0.19754 0.28856,0.16389 0.5455,0.42117 0.80527,0.62565 0.60462,0.47593 1.19648,0.96371 1.79347,1.44879 0.36399,0.29573 0.74211,0.56095 1.07975,0.88899 0.37086,0.36032 0.72573,0.761 1.04318,1.16892 0.19121,0.24576 0.18221,0.28779 0.36599,0.54329 0.29243,0.40658 0.50125,0.72662 0.71373,1.18538 0.44399,0.95862 0.6413,1.99514 0.89676,3.01282 0.14879,0.59301 0.32012,1.17352 0.42091,1.77806 0.0765,0.45856 0.0739,0.9365 0.10976,1.39939 0.0274,0.35187 0.0832,0.70175 0.10976,1.05364 0.035,0.45932 0.0182,0.92271 0.0182,1.38296 0,0.28835 0.0293,0.6037 -0.0182,0.88899 -0.087,0.52181 -0.3287,1.01935 -0.45752,1.53111 -0.21643,0.86 -0.41426,1.72522 -0.69543,2.56831 -0.13681,0.41035 -0.26062,0.83303 -0.42094,1.23477 -0.13377,0.33559 -0.3093,0.65842 -0.45751,0.98783 -0.16808,0.3735 -0.33781,0.74088 -0.53069,1.10302 -0.20601,0.38676 -0.45297,0.74365 -0.67715,1.11952 -0.92358,1.54838 -2.11744,2.98209 -3.6785,3.91832 -0.36047,0.21618 -0.71127,0.44158 -1.09806,0.60914 -0.45895,0.19879 -0.94346,0.33335 -1.39086,0.55975 -0.31995,0.16192 -0.59583,0.39747 -0.91504,0.55976 -0.21749,0.11057 -0.44921,0.18708 -0.65884,0.31282 -0.26781,0.16058 -0.57397,0.19577 -0.86015,0.31279 -0.11016,0.045 -0.20315,0.1161 -0.31113,0.16465 -0.0573,0.0259 -0.12864,0.033 -0.18298,0.0656 -0.0178,0.0121 -0.0355,0.0434 -0.0549,0.0494 -0.0751,0.0227 -0.11016,0.017 -0.18299,0.0656 -0.072,0.0486 -0.16554,0.0624 -0.14633,0.0657 0.17436,0.0314 0.29955,-0.0212 0.43922,-0.11529"
       id="path3853"
       inkscape:connector-curvature="0" />
  </g>
  <g
     inkscape:groupmode="layer"
     id="layer14"
     inkscape:label="head"
     style="display:inline"
     transform="translate(-16.934264,-219.3999)">
    <path
       style="fill:none;stroke:#000000;stroke-width:1.11551595px;stroke-linecap:butt;stroke-linejoin:miter;stroke-opacity:1;display:inline"
       d="m 117.37095,266.9657 c -3.92598,0.36829 -7.86582,0.27939 -11.80191,0.27939 -1.44569,0 -2.84446,-0.0654 -4.24456,0.3725 -4.764682,1.49091 -8.867028,4.43525 -12.837181,7.35739 -4.87362,3.58719 -10.124765,7.30612 -13.354792,12.57277 -0.425179,0.69324 -0.977379,1.96137 -1.34587,2.7008 -1.120217,2.24812 -2.264468,4.47367 -3.416328,6.70546 -0.509002,0.98627 -0.690885,1.56058 -1.242295,2.51457 -1.283208,2.21994 -2.528972,4.42146 -3.519888,6.7986 -1.430066,3.4306 -1.969672,7.13209 -3.209292,10.617 -0.614691,1.72798 -1.545958,3.3526 -2.070522,5.12219 -0.377897,1.2749 -0.57871,2.60986 -0.82819,3.91152 -0.173899,0.90727 -0.476283,1.78849 -0.621156,2.70084 -0.561587,3.53638 -0.310565,7.23814 -0.310565,10.80324 0,3.87953 -0.363265,7.93088 0.517593,11.73456 0.473864,2.04606 1.836845,3.70029 2.691676,5.58788 2.121165,4.68372 2.729075,10.21377 5.797443,14.43538 1.478095,2.03364 3.13504,3.95311 4.762197,5.86728 0.84073,0.98903 1.510688,2.10407 2.484614,2.9802 3.049071,2.74294 -1.257015,-1.31703 2.27757,1.86264 1.172686,1.05493 2.298155,2.163 3.519859,3.16647 1.912286,1.57069 4.093456,2.85328 6.108018,4.28403 1.095229,0.77787 2.344443,1.3261 3.416342,2.14202 1.460097,1.11142 2.956542,2.18366 4.451597,3.25961 0.05969,0.0429 1.830933,1.32466 1.966997,1.39696 3.739033,1.98761 8.012073,2.37044 11.905433,3.91153 0.69701,0.27586 1.78764,0.84169 2.48464,1.11759 3.29702,1.30504 6.84624,2.19205 10.35256,2.7008 4.07234,0.59087 8.31783,0.27941 12.42308,0.27941 2.21915,0 4.51776,0.16577 6.72918,0 4.90887,-0.36801 9.68111,-2.12151 14.28655,-3.72526 3.73357,-1.30015 7.37789,-2.59673 10.66315,-4.84285 0.85445,-0.5842 1.62654,-1.28371 2.4846,-1.86262 1.53882,-1.03824 3.18014,-1.94277 4.65866,-3.07332 5.31914,-4.06733 10.19641,-8.90673 13.87245,-14.52853 1.12413,-1.71916 1.87486,-3.63037 2.89874,-5.40163 2.46056,-4.25677 4.94189,-8.61508 5.90096,-13.50406 0.41947,-2.13832 0.47513,-4.35182 0.62115,-6.5192 0.26517,-3.93588 0.41407,-7.88218 0.41407,-11.82769 0,-2.17306 0,-4.34612 0,-6.5192 0,-1.11758 0.0979,-2.23943 0,-3.35277 -0.29708,-3.38555 -1.64849,-7.42283 -2.58812,-10.71007 -0.69939,-2.44676 -1.31311,-4.84931 -2.3811,-7.17112 -2.06045,-4.47947 -5.20734,-6.96808 -8.17853,-10.71012 -0.73273,-0.92286 -1.41953,-1.88892 -2.17405,-2.79396 -0.84239,-1.0104 -1.79329,-1.92869 -2.58813,-2.98019 -0.84091,-1.11246 -1.46275,-2.39026 -2.38111,-3.44587 -1.73964,-1.9997 -4.08567,-3.40604 -6.21152,-4.93595 -0.93274,-0.67131 -2.00044,-1.34184 -2.89871,-2.0489 -0.27227,-0.21429 -0.45938,-0.52228 -0.72471,-0.74505 -0.78478,-0.65895 -1.80838,-1.34616 -2.69165,-1.86265 -2.75324,-1.60991 -5.86948,-2.35278 -8.79968,-3.53897 -1.4001,-0.56679 -2.72871,-1.32768 -4.14103,-1.86264 -1.28001,-0.48485 -2.64236,-0.75885 -3.93398,-1.21073 -0.80322,-0.28099 -1.57407,-0.65905 -2.38109,-0.93128 -1.05738,-0.35673 -2.1618,-0.5387 -3.2093,-0.93132 -0.92086,-0.34516 -1.87705,-0.57735 -2.79518,-0.93132 -0.63363,-0.24428 -1.1626,-0.66264 -1.75996,-0.93133 -0.32597,-0.14665 -0.70926,-0.13268 -1.03523,-0.27938 -2.01629,-0.90692 -4.4399,-2.29548 -6.52212,-2.60769 -1.0002,-0.14993 -1.85828,-0.89074 -2.89873,-1.02443 -0.47533,-0.0608 -0.97302,0.0534 -1.44935,0 -0.21483,-0.0244 -0.40844,-0.14798 -0.62117,-0.18629 -0.25887,-0.0465 -0.57717,0.0752 -0.82819,0 -0.18625,-0.0559 -0.40843,-0.2411 -0.62116,-0.27938 -1.66448,-0.29948 -3.3819,0.0585 -5.07278,0.0933 z"
       id="path3780"
       inkscape:connector-curvature="0" />
  </g>
  <g
     inkscape:groupmode="layer"
     id="layer17"
     inkscape:label="body"
     style="display:inline"
     transform="translate(-16.934264,-219.3999)">
    <path
       style="fill:none;stroke:#000000;stroke-width:1.11551595px;stroke-linecap:butt;stroke-linejoin:miter;stroke-opacity:1;display:inline"
       d="m 128.16061,404.61168 c -0.17253,1.61428 -0.3703,3.22604 -0.51762,4.84283 -0.19004,2.08569 0.0684,4.2398 0,6.33295 -0.0833,2.54673 -0.10344,5.08644 -0.10344,7.63676 0,6.37908 -0.24429,12.81189 0,19.18509 0.046,1.19884 0.35637,2.34491 0.41411,3.539 0.18112,3.74768 -0.17362,7.52079 0,11.26891 0.0747,1.61714 0.34218,3.22557 0.41409,4.84284 0.29718,6.68368 0.10344,13.4214 0.10344,20.1164 0,11.73454 0,23.46911 0,35.20368 0,1.90312 -0.16209,3.87835 0,5.77414 0.0559,0.65646 0.22103,1.31113 0.31058,1.95576 0.1016,0.7309 -0.0814,1.50149 0,2.23512 0.33314,2.99696 0.31058,6.00747 0.31058,9.03377 0,1.45906 0,2.91811 0,4.37719 0,0.58048 -0.12473,1.30193 0,1.86263 0.13588,0.61088 -0.0411,1.39784 0.10356,2.04888 0.0847,0.38103 0.20705,0.62734 0.20705,1.02446 0,0.3641 0.0995,0.45517 0.20705,0.74504 0.19369,0.52267 0.017,1.25668 0.20705,1.76948 0.18977,0.51215 0,1.28373 0,1.21071 0,-0.31043 0,-0.62087 0,-0.93129"
       id="path3938"
       inkscape:connector-curvature="0" />
  </g>
  <g
     inkscape:groupmode="layer"
     id="layer23"
     inkscape:label="bowtie"
     style="display:inline"
     transform="translate(-16.934264,-219.3999)">
    <g
       id="bowtie"
       transform="matrix(0.10625132,0,0,0.10929047,87.886386,406.08402)"
       style="fill:#000000;display:inline">
      <path
         style="fill:#000000;fill-opacity:1;fill-rule:evenodd;stroke:none"
         d="m 77.53125,175.03125 c -1.250105,0.0341 -3.351364,1.4558 -3.84375,2.46875 -0.590479,1.21474 -1.602174,2.78127 -1.71875,5.5625 -0.105619,2.51977 0.151653,3.8411 -0.03125,6.21875 -0.115394,1.5001 0.560657,3.08826 0.90625,3.90625 -0.07928,0.85918 0.669333,5.40482 2.6875,6.78125 1.856377,1.26608 6.320582,-1.53532 8.65625,-2.1875 0.719642,-0.20094 4.82338,-2.82891 5.53125,-3.375 1.102389,-0.85044 3.572262,-1.52754 4.78125,-2.125 0.755722,1.07521 2.882512,0.78208 4.09375,1.03125 0.927971,0.1909 3.70774,0.11014 4.46875,-0.28125 0.61211,-0.31481 0.92744,-0.7784 1.125,-1.375 0.21023,0.20729 2.82377,2.74135 3.875,2.6875 0.85416,-0.0437 4.3838,2.78396 5.09375,2.65625 1.16803,-0.21012 7.93688,5.46541 8.96875,2.28125 0.74011,-2.28386 0.93205,-4.93327 1.3125,-7.28125 0.0847,-0.52279 0.14588,-3.16283 0.21875,-3.6875 0.33526,-2.41393 0.30022,-2.91634 0.875,-5.28125 0.29587,-1.21733 0.0707,-3.85717 -0.5,-5.03125 -0.48404,-0.99578 -2.3181,-1.33445 -3.375,-2.25 -0.10053,0.005 -4.47604,0.31543 -6.3125,1.125 -2.97379,1.31094 -4.23538,2.54658 -7.21875,4.03125 -0.61479,0.30595 -2.37415,0.93909 -3.25,1.375 -0.0518,-0.0677 -0.10485,-0.16588 -0.15625,-0.21875 -0.99789,-1.02644 -4.158055,-0.45906 -5.5,-0.65625 -0.559649,-0.0822 -2.268208,0.0164 -3.3125,0.8125 -0.200294,0.15269 -0.348522,0.32543 -0.46875,0.53125 -0.929617,-0.6922 -3.134173,-1.78743 -3.8125,-2.125 -3.086678,-1.53609 -4.587246,-2.74111 -7.625,-4.1875 -1.75916,-0.8376 -3.332425,-1.01427 -5.125,-1.375 -0.112823,-0.0227 -0.226217,-0.0344 -0.34375,-0.0312 z"
         id="path1543"
         transform="matrix(12.690898,0,0,12.33799,-882.68738,-2075.5898)"
         inkscape:connector-curvature="0" />
    </g>
  </g>
  <g
     inkscape:groupmode="layer"
     id="layer25"
     inkscape:label="m"
     style="display:inline"
     transform="translate(-16.934264,-219.3999)">
    <path
       style="fill:none;stroke:#000000;stroke-width:1.11551595px;stroke-linecap:butt;stroke-linejoin:miter;stroke-opacity:1;display:inline"
       d="m 143.53417,364.96355 c -0.14026,0.4006 -0.31733,0.79018 -0.42092,1.20181 -0.0442,0.17574 -0.009,0.36233 -0.0182,0.54332 -0.0313,0.64799 -0.0662,1.29435 -0.0917,1.94266 -0.0648,1.65605 -0.0917,3.31446 -0.0917,4.97198 0,0.5543 0,1.10853 0,1.66281 0,0.10424 0,0.20855 0,0.31279 0,0.0383 0.0383,0.1153 0,0.1153 -0.0493,0 0.009,-0.0998 0,-0.14813 -0.0791,-0.39147 0.008,0.31972 -0.0732,-0.26341 -0.009,-0.0751 -0.036,-0.5054 -0.0367,-0.54333 -0.0255,-1.04678 0,-2.09745 0,-3.14452 0,-1.11347 -0.0458,-2.22856 0.27453,-3.30913 0.13376,-0.45155 0.1701,-0.48896 0.36604,-0.90549 1.0021,-2.13084 2.82636,-3.64452 5.06935,-4.34637 0.35903,-0.11232 0.70696,-0.14812 1.07975,-0.14812 0.10976,0 0.22145,-0.0199 0.32941,0 0.64407,0.11947 1.08878,0.95626 1.42748,1.43232 0.5212,0.73264 1.04937,1.50247 1.22616,2.40368 0.15764,0.80366 0.1223,1.65537 0.10977,2.46949 -10e-4,0.18669 6.7e-4,0.37415 -0.0182,0.55979 -0.0303,0.28788 -0.10545,0.56949 -0.14633,0.85608 -0.0198,0.13765 -0.045,0.30248 -0.0549,0.44454 -0.003,0.0329 0.033,0.0987 0,0.0987 -0.0603,0 0,-0.12069 0,-0.18112 0,-0.1756 -0.0227,-0.35267 0,-0.52683 0.0608,-0.46937 0.20847,-0.94387 0.32941,-1.39938 0.15453,-0.58201 0.29198,-1.17351 0.42091,-1.76161 0.18684,-0.85238 0.25413,-1.79436 0.73204,-2.55183 0.79097,-1.2537 2.31636,-1.8461 3.75169,-1.87684 0.38274,-0.008 0.73884,-0.0421 1.09807,0.11502 0.78682,0.34489 2.01629,1.3481 2.48891,2.0744 0.17017,0.2615 0.26244,0.47241 0.3477,0.7738 0.16904,0.5974 0.14632,1.19618 0.14632,1.81097 0,0.27439 0.0205,0.54954 0,0.82317 -0.0387,0.52353 -0.21392,1.35335 -0.31111,1.86038 -0.17121,0.89332 -0.32425,1.78119 -0.43921,2.68353 -0.12796,1.0048 -0.23839,2.01745 -0.29283,3.02931 -0.0342,0.63549 -0.0182,1.27356 -0.0182,1.90974 0,0.1391 -0.0507,1.05743 0.0731,1.16891 0.0992,0.0891 -0.13269,-0.23131 -0.20131,-0.34575"
       id="path3842"
       inkscape:connector-curvature="0" />
  </g>
  <g
     inkscape:groupmode="layer"
     id="layer21"
     inkscape:label="a_1"
     style="display:inline"
     transform="translate(-16.934264,-219.3999)">
    <g
       id="g3894"
       transform="matrix(0.67421229,0,0,0.67421229,-5.9003137,179.24185)">
      <path
         inkscape:connector-curvature="0"
         id="path3832"
         d="m 159.99863,273.53563 c -0.76337,-0.10967 -1.51529,-0.14632 -2.28009,-0.14632 -0.19001,0 -0.3825,-0.0306 -0.57002,0 -0.61388,0.10057 -1.83677,0.73449 -2.36155,1.07443 -0.44205,0.28632 -0.91468,0.55409 -1.33003,0.87903 -0.31021,0.24259 -0.59621,0.52544 -0.89577,0.78142 -0.35378,0.30235 -0.20536,0.12682 -0.51577,0.48837 -0.41612,0.48449 -0.97133,1.54876 -1.22148,2.14886 -0.33017,0.79202 -0.4331,1.69094 -0.48858,2.53954 -0.0325,0.4969 -0.027,0.99181 -0.027,1.48958 0,0.57128 -0.027,1.14486 0.0814,1.70931 0.14802,0.7716 0.44133,1.48685 0.70578,2.2221 0.23359,0.64922 0.47248,1.29025 0.73289,1.92909 0.13401,0.32904 0.24341,0.67295 0.43427,0.97678 0.15647,0.24882 0.35941,0.47957 0.5429,0.70816 0.24602,0.30639 0.46532,0.63832 0.76004,0.90345 0.67487,0.60714 2.54155,1.15236 3.47444,1.19654 0.39036,0.0202 0.86279,0.0557 1.24865,0 0.3309,-0.0474 0.6279,-0.22725 0.9229,-0.36629 0.3107,-0.14632 0.62978,-0.28051 0.9229,-0.46394 0.81029,-0.50711 1.5081,-1.25994 2.03584,-2.0512 0.13972,-0.20949 0.2253,-0.44408 0.35284,-0.6593 0.25513,-0.43033 0.50263,-0.90162 0.81435,-1.29421 0.0619,-0.11685 0.1912,-0.16951 0.27142,-0.26858 0.0932,-0.11524 0.19954,-0.31022 0.27144,-0.43955 0.18733,-0.33715 0.32327,-0.75698 0.4343,-1.12329 0.50759,-1.67421 0.64532,-3.12101 0.40716,-4.83489 -0.1321,-0.95167 -0.17255,-1.69672 -0.54289,-2.61283 -0.22554,-0.55793 -0.64144,-0.96041 -0.95004,-1.46513 -0.28117,-0.45988 0.001,-0.022 -0.24428,-0.51279 -0.12198,-0.24398 -0.13283,-0.1634 -0.21704,-0.39071 -0.0861,-0.23164 -0.11084,-0.22385 -0.21705,-0.41513 -0.017,-0.0296 -0.009,-0.0707 -0.027,-0.0974 -0.0202,-0.0254 -0.0581,-0.0277 -0.0814,-0.0488 -0.0277,-0.0252 -0.0296,-0.0698 -0.0542,-0.0974 -0.10306,-0.11582 -0.24505,-0.18228 -0.35284,-0.29304 -0.11347,-0.1167 -0.18998,-0.27677 -0.29862,-0.39068 -0.13459,-0.14104 -0.32725,-0.19447 -0.48857,-0.29305 -0.41882,-0.25622 -0.83243,-0.52095 -1.24864,-0.78141 z"
         style="fill:none;stroke:#000000;stroke-width:1.65454686px;stroke-linecap:butt;stroke-linejoin:miter;stroke-opacity:1;display:inline" />
      <path
         inkscape:connector-curvature="0"
         id="path3834"
         d="m 163.52742,273.09607 c -0.0202,0.43141 -0.0686,0.86267 -0.0543,1.2942 0.003,0.11934 0.0793,0.2258 0.10849,0.34189 0.0343,0.13708 0.0542,0.2767 0.0814,0.41515 0.0454,0.16287 0.0913,0.32526 0.13591,0.48834 0.15427,0.56931 0.28335,1.15536 0.48858,1.70931 0.275,0.74213 0.66868,1.44473 0.97719,2.17327 0.19913,0.47007 0.32849,0.97329 0.46144,1.46513 0.32129,1.18816 0.42024,2.42948 0.76008,3.61399 0.17052,0.59488 0.44501,1.15591 0.59715,1.75814 0.10718,0.42436 0.19101,0.85194 0.32572,1.26979 0.12858,0.39804 0.30588,0.77406 0.43431,1.17208 0.0839,0.25991 0.11685,0.43341 0.21702,0.68373 0.27767,0.69374 0.75531,1.33587 1.16725,1.95351 0.24883,0.37314 0.35538,0.81037 0.57002,1.19655 0.0526,0.0941 0.11846,0.16863 0.16289,0.2686 0.0641,0.14368 0.0861,0.301 0.16288,0.43955 0.0921,0.16558 0.20487,0.36784 0.32574,0.51281 0.091,0.10923 0.20586,0.19932 0.27144,0.31742"
         style="fill:none;stroke:#000000;stroke-width:1.65454686px;stroke-linecap:butt;stroke-linejoin:miter;stroke-opacity:1;display:inline" />
    </g>
  </g>
  <g
     inkscape:groupmode="layer"
     id="layer18"
     inkscape:label="d"
     style="display:inline"
     transform="translate(-16.934264,-219.3999)">
    <path
       style="fill:none;stroke:#000000;stroke-width:1.11551595px;stroke-linecap:butt;stroke-linejoin:miter;stroke-opacity:1;display:inline"
       d="m 119.78883,364.40377 c -1.05752,0.16638 -2.09224,0.0657 -3.13721,0.0657 -0.28006,0 -0.58183,-0.036 -0.86402,0.0331 -1.16322,0.28459 -2.20124,1.06997 -3.07778,1.89331 -0.47443,0.44562 -0.94656,0.91863 -1.23779,1.49817 -0.41622,0.82833 -0.48193,1.76218 -0.58454,2.63415 -0.0466,0.39605 -0.18436,1.04679 -0.13017,1.41587 0.0811,0.55145 0.34674,1.01576 0.51524,1.53109 0.13862,0.42415 0.25142,0.86317 0.43642,1.26771 0.0591,0.16076 0.16979,0.29087 0.2405,0.44451 0.0836,0.1817 0.13976,0.38446 0.26545,0.54329 0.10878,0.13731 0.27653,0.24289 0.41683,0.34573 0.49384,0.36191 1.12237,0.6038 1.74485,0.72438 0.22356,0.0431 0.48063,0.0166 0.71176,0.0166 0.14634,0 0.29262,0.0321 0.43924,0 0.48006,-0.10504 1.28973,-0.68681 1.69015,-0.98779 0.54585,-0.41029 1.39882,-1.04996 1.733,-1.66282 0.22543,-0.41344 0.31262,-0.86143 0.42762,-1.30059 0.22347,-0.8538 0.39408,-1.71389 0.61339,-2.56834 0.18662,-0.7269 0.3081,-1.37377 0.39446,-2.10731 0.0285,-0.24148 0.0746,-0.48359 0.0852,-0.72439 0.0178,-0.40991 -0.0823,-0.78676 -0.11662,-1.18538 -0.008,-0.0905 -0.002,-0.70492 -0.0352,-0.79023 -0.14288,-0.37978 -0.4933,-0.67193 -0.53095,-1.08657 -0.0309,-0.34073 0.25428,-0.67563 0.33978,-1.02077 0.0405,-0.16308 -0.0842,-0.53054 -0.0998,-0.70792 -0.0422,-0.4786 -0.0194,-0.96793 -0.0492,-1.4488 -0.0247,-0.40196 -0.11005,-0.78797 -0.21014,-1.16889 -0.20118,-0.76612 -0.47256,-1.52646 -0.5869,-2.32135 -0.14157,-0.98401 -0.15503,-1.98795 -0.14142,-2.99636 0.0136,-0.9532 -0.0229,0.49271 -0.0256,-0.55974 -0.002,-0.94002 0.0458,0.316 0.0187,-0.62562 -0.008,-0.27057 -0.0405,-0.53737 -0.0514,-0.8067 -0.008,-0.17909 0.0194,-0.36422 0.008,-0.54331 -0.0136,-0.21915 -0.0727,-0.43679 -0.0689,-0.65855 0.007,-0.38269 0.0648,-0.77133 0.0625,-1.15243 -6.4e-4,-0.11287 -0.0136,-0.28887 -0.0854,-0.36219 -0.006,-0.007 -0.0165,-0.23162 -0.0238,-0.26343 -0.006,-0.0166 -0.11153,-0.34352 -0.13369,-0.26341 -0.0723,0.26192 -0.0768,0.65213 -0.10845,0.92199 -0.0486,0.41218 -0.12781,0.84094 -0.12891,1.2512 -6.7e-4,0.3434 0.0438,0.68015 0.0629,1.02073 0.0403,0.71767 0.0394,1.44124 0.0941,2.15672 0.0497,0.6519 0.15568,1.29225 0.21057,1.94266 0.0581,0.68789 0.0761,1.39126 0.0467,2.09087 -0.0199,0.46986 -0.0405,0.94512 -0.0751,1.41586 -0.0149,0.18619 -0.0397,0.37482 -0.0294,0.55974 0.0166,0.31261 0.086,0.61164 0.11096,0.92196 0.0311,0.38564 0.0588,0.76997 0.1024,1.15244 0.0199,0.17586 0.0528,0.44592 0.14977,0.59271 0.19587,0.29656 0.50645,0.52603 0.61102,0.87257 0.0811,0.26826 -0.0718,0.58241 -0.0845,0.87256 -0.002,0.0758 0.21033,0.50458 0.23747,0.62559 0.0534,0.23751 0.0565,0.48866 0.11591,0.72441 0.0337,0.13336 0.0845,0.26219 0.11826,0.39512 0.0517,0.20458 -0.01,0.0608 0.0403,0.27988 0.0426,0.1852 0.12906,0.35166 0.1557,0.54329 0.028,0.20248 0.05,0.41034 0.0929,0.60915 0.0256,0.1188 0.0336,0.0489 0.0518,0.18107 0.0545,0.39278 0.0678,0.79539 0.13505,1.18538 0.0617,0.35936 0.23644,0.68018 0.29887,1.0372 0.0738,0.42205 0.0686,0.86039 0.1233,1.28417 0.0213,0.16463 0.11165,0.31098 0.12686,0.47745 0.0337,0.37318 0.10276,0.74017 0.18129,1.10302 0.0761,0.35268 0.20966,0.66947 0.35957,0.98783 0.0607,0.12878 0.1048,0.27081 0.17308,0.39515 0.0855,0.15597 0.23279,0.26761 0.33588,0.41153 0.16355,0.22835 0.29759,0.48247 0.48593,0.69151 0.13287,0.1473 0.30292,0.23613 0.45151,0.36217 0.12112,0.10275 0.2005,0.24374 0.3051,0.36221 0.15963,0.18091 0.35183,0.32345 0.54967,0.46098 0.0207,0.0149 0.10856,0.0357 0.1222,0.0493 0.0367,0.0369 -0.0207,0.11016 -0.0375,0.16465"
       id="path3836"
       inkscape:connector-curvature="0" />
  </g>
  <g
     inkscape:groupmode="layer"
     id="layer22"
     inkscape:label="a_2"
     style="display:inline"
     transform="translate(-16.934264,-219.3999)">
    <g
       transform="matrix(0.67421229,0,0,0.67421229,-5.9003108,179.24185)"
       style="display:inline"
       id="g3962">
      <path
         inkscape:connector-curvature="0"
         id="path3840"
         d="m 213.28266,275.7089 c -0.28952,0.48023 -0.64515,0.92639 -0.8686,1.44071 -0.0484,0.11128 -0.0809,1.48264 -0.0814,1.51396 -0.0378,1.24971 -0.027,0.76754 -0.027,2.10001 0,1.23693 -0.0702,2.50322 0.0542,3.73609 0.18595,1.83981 0.79736,3.79653 1.57435,5.46982 0.36456,0.78511 0.5429,1.03469 0.97718,1.78258 0.59575,1.0259 1.45996,2.19157 1.81867,3.32093 0.0872,0.27403 0.14515,0.56759 0.16287,0.85469 0.009,0.0974 0,0.19546 0,0.29299 0,0.0245 -0.0202,0.0897 0,0.0733 0.089,-0.0804 0.0809,-0.45338 0.0815,-0.46393"
         style="fill:none;stroke:#000000;stroke-width:1.65454686px;stroke-linecap:butt;stroke-linejoin:miter;stroke-opacity:1;display:inline" />
      <path
         inkscape:connector-curvature="0"
         id="path3838"
         d="m 206.68663,275.36704 c -0.57534,0.11582 -1.292,-0.59745 -1.90009,-0.75697 -0.78461,-0.20611 -1.61092,-0.21973 -2.41583,-0.21973 -0.37832,0 -0.79045,-0.0378 -1.16719,0 -0.46999,0.0471 -0.91418,0.28574 -1.33006,0.48839 -1.42812,0.6959 -2.21213,1.13669 -3.06735,2.53956 -0.39759,0.65227 -0.97403,1.62595 -1.19432,2.34419 -0.16992,0.5536 -0.16288,1.16217 -0.16288,1.73377 0,0.67558 0,1.35114 0,2.02673 0,0.54942 -0.0356,1.11345 0.027,1.6605 0.11128,0.96841 0.37929,2.02016 0.84148,2.88144 0.55964,1.04283 1.65538,1.76602 2.60586,2.41747 0.32572,0.22336 0.63047,0.51212 0.89572,0.80578 0.0567,0.0627 0.0976,0.14105 0.16289,0.19547 0.18837,0.1573 0.5308,0.28893 0.76005,0.3663 0.57427,0.19363 1.19474,0.17113 1.79153,0.17113 0.39811,0 0.79821,0.0394 1.19433,0 1.35371,-0.13518 3.56847,-1.10208 4.66879,-1.90468 0.76894,-0.56088 1.43514,-1.26998 2.11722,-1.92909 0.82417,-0.79631 1.81254,-2.11866 2.14443,-3.22327 0.27515,-0.9159 0.2704,-1.88711 0.3257,-2.83259 0.0378,-0.64268 0.027,-1.28538 0.027,-1.9291 0,-0.25571 0.0466,-0.57869 0,-0.8302 -0.0804,-0.43295 -0.35779,-0.87625 -0.54286,-1.26982 -0.31678,-0.67351 -0.59044,-1.4435 -1.22151,-1.88023 -0.0994,-0.0685 -0.30494,-0.14119 -0.40716,-0.19506 -0.65552,-0.34689 -1.89579,-0.97721 -2.63297,-0.90352 -0.51066,0.0509 -1.00696,0.25244 -1.52012,0.24422 -0.51592,-0.009 -1.00892,-0.22242 -1.52002,-0.29306 -0.19709,-0.0271 -0.39814,0 -0.59721,0 -0.99836,0 -1.79104,0.15443 -2.74155,0.43955 -0.51537,0.15445 -1.03792,0.20583 -1.4929,0.51281"
         style="fill:none;stroke:#000000;stroke-width:1.65454686px;stroke-linecap:butt;stroke-linejoin:miter;stroke-opacity:1;display:inline" />
    </g>
  </g>
  <g
     inkscape:groupmode="layer"
     id="layer20"
     inkscape:label="e"
     style="display:inline"
     transform="translate(-16.934264,-219.3999)">
    <path
       id="path3830"
       style="fill:none;stroke:#000000;stroke-width:1.11551595px;stroke-linecap:butt;stroke-linejoin:miter;stroke-opacity:1;display:inline"
       d="m 145.80347,320.03722 c 0.34163,0.0657 0.67703,0.18993 1.02486,0.19755 0.16778,0.003 0.31827,-0.1068 0.47582,-0.16462 0.53539,-0.19622 1.05072,-0.41797 1.57389,-0.64208 0.98682,-0.42273 2.00748,-0.76333 3.00134,-1.16892 2.08392,-0.85036 4.1242,-1.8015 6.22232,-2.61768 0.68207,-0.26532 1.37142,-0.51703 2.068,-0.74086 0.11623,-0.0376 0.2305,-0.0813 0.34775,-0.11529 0.13877,-0.0405 0.35499,-0.0526 0.4941,-0.11502 0.0867,-0.0389 -0.18251,-0.37571 -0.20129,-0.41158 -0.26236,-0.50149 -0.47522,-1.00217 -0.64056,-1.54757 -0.16908,-0.55772 -0.32867,-1.11467 -0.64053,-1.61344 -0.16092,-0.25737 -0.35845,-0.4912 -0.53071,-0.74084 -0.33158,-0.48056 -0.63207,-0.9963 -1.07977,-1.38292 -0.53578,-0.46273 -1.24504,-0.71785 -1.9216,-0.88903 -0.36639,-0.0929 -0.73141,-0.1889 -1.09805,-0.27988 -0.24133,-0.06 -0.48466,-0.14927 -0.73205,-0.18111 -0.29396,-0.0376 -0.60139,-0.033 -0.89672,-0.033 -0.26231,0 -0.52543,-0.0205 -0.78697,0 -0.73902,0.0575 -1.56706,0.3771 -2.2693,0.60913 -0.73925,0.2443 -1.49002,0.49752 -2.15949,0.90551 -0.38471,0.23444 -0.73387,0.55086 -1.06147,0.85611 -0.26606,0.24784 -0.54561,0.48391 -0.78694,0.75732 -0.084,0.0951 -0.15206,0.20315 -0.23792,0.29634 -0.0917,0.0992 -0.20103,0.18083 -0.29282,0.27985 -0.58414,0.63062 -1.13778,1.36456 -1.48238,2.15671 -0.58563,1.34643 -0.59631,2.83525 -0.6222,4.28051 -0.008,0.488 0,0.97718 0,1.46527 0,0.31279 -0.031,0.62714 0,0.93839 0.0224,0.22561 0.15027,0.68407 0.20128,0.90551 0.17177,0.74448 0.38821,1.47505 0.54903,2.22257 0.24874,1.15601 0.42832,2.34087 1.04318,3.37503 0.22444,0.37746 0.50421,0.69009 0.78692,1.02071 0.41838,0.48928 0.86404,0.92777 1.33598,1.36648 0.38364,0.35663 0.76886,0.74005 1.18955,1.05363 0.44453,0.33138 0.97998,0.54641 1.50066,0.72442 0.86995,0.29738 1.7803,0.43097 2.67196,0.64206 0.45115,0.10666 0.89643,0.21788 1.35428,0.29638 0.76783,0.13147 1.94402,0.14073 2.70853,-0.0166 0.3442,-0.0705 0.69314,-0.14404 1.04313,-0.18109 0.34469,-0.0367 0.71644,0 1.06146,0 0.18914,0 0.37823,0 0.56735,0 0.0549,0 0.11003,0.007 0.1647,0 0.0377,-0.007 0.14715,-0.0247 0.10976,-0.0331 -0.03,-0.007 -0.0608,0 -0.0917,0"
       inkscape:connector-curvature="0" />
  </g>
  <g
     inkscape:groupmode="layer"
     id="layer26"
     inkscape:label="r"
     style="display:inline"
     transform="translate(-16.934264,-219.3999)">
    <path
       id="path3828"
       style="fill:none;stroke:#000000;stroke-width:1.11551595px;stroke-linecap:butt;stroke-linejoin:miter;stroke-opacity:1;display:inline"
       d="m 121.64626,311.95367 c -0.23791,0.32926 -0.53498,0.62303 -0.71375,0.98781 -0.0798,0.16305 -0.0286,0.36196 -0.0366,0.54326 -0.01,0.23036 -0.0165,0.46093 -0.0182,0.69149 -0.0115,0.98195 0,1.96496 0,2.94695 0,2.40915 0,4.8183 0,7.22748 0,1.38831 0.0136,2.77712 -0.0182,4.16527 -0.0271,1.20263 -0.0807,2.40446 -0.14634,3.60547 -0.0526,1.13761 0.01,-0.10073 -0.0366,0.60917 -0.002,0.0358 0.0238,0.10639 -0.055,0.0656 -0.45351,-0.23315 -0.4209,-1.01425 -0.4209,-1.41587 0,-0.69462 0.006,-1.36502 0.0732,-2.05792 0.0609,-0.62776 0.14303,-1.26249 0.16469,-1.89331 0.0265,-0.76782 0,-1.53659 0,-2.30486 0,-0.41707 0.0182,-0.83457 0,-1.25125 -0.0186,-0.42374 -0.082,-0.84445 -0.10983,-1.26768 -0.0777,-1.17856 -0.0731,-2.35934 -0.0731,-3.53964 0,-0.35672 -0.019,-0.71392 0,-1.07012 0.0689,-1.29283 0.41344,-2.58105 0.82353,-3.80309 0.095,-0.28293 0.23781,-0.5503 0.31112,-0.83962 0.11646,-0.45969 0.0213,-0.98745 0.25621,-1.39938 0.27161,-0.47631 0.79198,-0.75845 1.18959,-1.13601 0.15141,-0.14387 0.29818,-0.293 0.45752,-0.42804 1.00894,-0.85527 2.15648,-1.55538 3.33076,-2.1567 1.01756,-0.5211 1.71175,-0.82395 2.87326,-0.85612 0.71283,-0.0199 1.13338,0.0149 1.73856,0.42805 1.1719,0.79977 1.92667,2.07801 2.70854,3.22686 0.2222,0.32651 0.44304,0.63565 0.69543,0.93842 0.0804,0.0966 0.16094,0.22714 0.25622,0.31277 0.007,10e-4 0.003,-0.0136 0,-0.0166 -0.0279,-0.0353 -0.0608,-0.0657 -0.0917,-0.0987"
       inkscape:connector-curvature="0" />
  </g>
  <g
     inkscape:groupmode="layer"
     id="layer24"
     inkscape:label="b"
     style="display:inline"
     transform="translate(-16.934264,-219.3999)">
    <path
       id="path3826"
       style="fill:none;stroke:#000000;stroke-width:1.11551595px;stroke-linecap:butt;stroke-linejoin:miter;stroke-opacity:1;display:inline"
       d="m 90.040539,292.47738 c 0.01362,0.35668 0.0074,0.71446 0.03658,1.07011 0.01869,0.22173 0.07315,0.43902 0.109827,0.65854 0.03032,0.2689 0.06896,0.537 0.09163,0.8067 0.133143,1.60169 0.109827,3.21843 0.109827,4.82381 0,1.99757 0,3.99513 0,5.99267 0,0.85613 -0.046,1.71343 0,2.56833 0.02075,0.38593 0.08215,0.76868 0.128072,1.15245 0.135344,1.12896 0.306381,2.25809 0.402623,3.39149 0.140591,1.65487 0.170279,3.32842 0.183004,4.98841 0.0079,1.03704 0,2.07452 0,3.11159 0,1.04945 0.0074,2.09712 -0.07315,3.14453 -0.05395,0.70329 -0.118122,1.40178 -0.146317,2.10731 -0.05108,1.26842 -0.03827,2.55022 -0.01818,3.81955 0.0079,0.58802 0.09835,1.16121 0.146478,1.74514 0.01869,0.22562 0,0.46516 0,0.69144 0,0.43355 0,0.86705 0,1.30062 0,0.41707 0,0.83414 0,1.2512 0,0.0996 0.01649,0.22938 0,0.32926 -0.0059,0.033 -0.01487,0.13214 -0.01818,0.099 -0.121669,-1.31361 -0.09163,-2.65012 -0.09163,-3.96767 0,-1.41037 0,-2.82074 0,-4.23111 0,-1.04851 -0.0365,-2.09584 -0.0365,-3.14454 0,-0.56709 -0.02649,-1.10468 0.09164,-1.66278 0.124959,-0.59012 0.33423,-1.15429 0.512428,-1.72869 0.100591,-0.32402 0.18862,-0.65184 0.34772,-0.95486 0.05409,-0.10288 0.126578,-0.19488 0.182989,-0.29636 0.317914,-0.57196 0.633472,-1.14651 0.933362,-1.72865 0.143372,-0.27837 0.178625,-0.37076 0.329409,-0.64206 0.145014,-0.261 0.316655,-0.5113 0.45751,-0.77379 0.136028,-0.25337 0.240726,-0.52304 0.384349,-0.7738 0.283573,-0.49527 0.677284,-0.86755 1.134654,-1.20184 0.814504,-0.59536 1.758802,-1.00042 2.763441,-1.13597 0.38359,-0.0517 0.383627,-0.0252 0.768623,-0.033 0.573668,-0.0121 1.146283,-0.0165 1.720292,-0.0165 0.43921,0 0.87845,0 1.31767,0 0.36797,0 0.77061,-0.0399 1.13465,0.0329 0.10663,0.0214 0.20688,0.0674 0.31111,0.0986 0.23772,0.0712 0.34239,0.0712 0.54902,0.21401 0.36735,0.2542 0.648,0.70483 0.86014,1.08661 0.19913,0.35819 0.36118,0.74662 0.53075,1.1195 0.33916,0.74579 0.6239,1.4934 0.87843,2.27196 0.18159,0.55542 0.38135,1.10428 0.49415,1.67929 0.13747,0.70112 0.21127,1.4127 0.27451,2.12378 0.0477,0.53449 0.0549,1.06066 0.0549,1.59696 0,0.40339 0.0354,0.82096 -0.0549,1.21829 -0.15206,0.67016 -0.54103,1.33022 -0.84184,1.94268 -0.32184,0.65522 -0.6356,1.30478 -1.09808,1.87683 -0.61291,0.75814 -1.44533,1.32439 -2.21441,1.90978 -0.76397,0.58156 -1.49379,1.22117 -2.28759,1.76159 -0.530695,0.36128 -1.104605,0.64224 -1.701978,0.87256 -0.473172,0.18245 -0.967223,0.31267 -1.427501,0.52684 -0.645048,0.30014 -1.292003,0.59759 -1.939885,0.88901 -0.231143,0.10411 -0.431177,0.27627 -0.658855,0.37868 -0.161418,0.0728 -0.361725,0.0813 -0.530716,0.13148 -0.580873,0.17417 -1.194091,0.30525 -1.793473,0.3951 -0.133562,0.0199 -0.286679,0 -0.420918,0 -0.256225,0 -0.512436,0 -0.768653,0 -0.02046,0 -0.264144,0.0188 -0.274514,0 -0.0079,-0.0166 0.380433,-0.42358 0.384319,-0.42804"
       inkscape:connector-curvature="0" />
  </g>
</svg>
